solid CATIA STL
  facet normal  0.000000e+000  1.000000e+000  0.000000e+000
    outer loop
      vertex  8.600000e+001  3.000000e+000  3.437198e+001
      vertex  8.900000e+001  3.000000e+000  3.816541e+001
      vertex  8.900000e+001  3.000000e+000  3.402557e+001
    endloop
  endfacet
  facet normal  0.000000e+000  1.000000e+000  0.000000e+000
    outer loop
      vertex  2.463496e+000  3.000000e+000  5.941311e+001
      vertex  1.443933e+000  3.000000e+000  5.938870e+001
      vertex  1.952133e+000  3.000000e+000  5.946699e+001
    endloop
  endfacet
  facet normal  0.000000e+000  1.000000e+000  0.000000e+000
    outer loop
      vertex  6.706350e+001  3.000000e+000  4.402322e+001
      vertex  6.604393e+001  3.000000e+000  4.399881e+001
      vertex  6.655213e+001  3.000000e+000  4.407710e+001
    endloop
  endfacet
  facet normal  0.000000e+000  1.000000e+000  0.000000e+000
    outer loop
      vertex  0.000000e+000  3.000000e+000  2.000000e+000
      vertex  0.000000e+000  3.000000e+000  5.746756e+001
      vertex  5.986349e+001  3.000000e+000  4.573850e+001
    endloop
  endfacet
  facet normal  0.000000e+000  1.000000e+000  0.000000e+000
    outer loop
      vertex  0.000000e+000  3.000000e+000  2.000000e+000
      vertex  5.986349e+001  3.000000e+000  4.573850e+001
      vertex  6.036106e+001  3.000000e+000  4.554691e+001
    endloop
  endfacet
  facet normal  0.000000e+000  1.000000e+000  0.000000e+000
    outer loop
      vertex  0.000000e+000  3.000000e+000  2.000000e+000
      vertex  6.036106e+001  3.000000e+000  4.554691e+001
      vertex  6.079032e+001  3.000000e+000  4.523066e+001
    endloop
  endfacet
  facet normal  0.000000e+000  1.000000e+000  0.000000e+000
    outer loop
      vertex  0.000000e+000  3.000000e+000  2.000000e+000
      vertex  6.079032e+001  3.000000e+000  4.523066e+001
      vertex  6.112077e+001  3.000000e+000  4.481224e+001
    endloop
  endfacet
  facet normal  0.000000e+000  1.000000e+000  0.000000e+000
    outer loop
      vertex  0.000000e+000  3.000000e+000  2.000000e+000
      vertex  6.112077e+001  3.000000e+000  4.481224e+001
      vertex  6.132893e+001  3.000000e+000  4.432137e+001
    endloop
  endfacet
  facet normal  0.000000e+000  1.000000e+000  0.000000e+000
    outer loop
      vertex  0.000000e+000  3.000000e+000  2.000000e+000
      vertex  6.132893e+001  3.000000e+000  4.432137e+001
      vertex  6.140000e+001  3.000000e+000  4.379295e+001
    endloop
  endfacet
  facet normal  0.000000e+000  1.000000e+000  0.000000e+000
    outer loop
      vertex  0.000000e+000  3.000000e+000  2.000000e+000
      vertex  6.140000e+001  3.000000e+000  4.379295e+001
      vertex  6.140000e+001  3.000000e+000  3.899128e+001
    endloop
  endfacet
  facet normal  0.000000e+000  1.000000e+000  0.000000e+000
    outer loop
      vertex  0.000000e+000  3.000000e+000  2.000000e+000
      vertex  6.140000e+001  3.000000e+000  3.899128e+001
      vertex  8.838540e+001  3.000000e+000  3.894363e+001
    endloop
  endfacet
  facet normal  0.000000e+000  1.000000e+000  0.000000e+000
    outer loop
      vertex  0.000000e+000  3.000000e+000  2.000000e+000
      vertex  8.838540e+001  3.000000e+000  3.894363e+001
      vertex  8.870274e+001  3.000000e+000  3.878771e+001
    endloop
  endfacet
  facet normal  0.000000e+000  1.000000e+000  0.000000e+000
    outer loop
      vertex  0.000000e+000  3.000000e+000  2.000000e+000
      vertex  8.870274e+001  3.000000e+000  3.878771e+001
      vertex  8.892187e+001  3.000000e+000  3.851023e+001
    endloop
  endfacet
  facet normal  0.000000e+000  1.000000e+000  0.000000e+000
    outer loop
      vertex  0.000000e+000  3.000000e+000  2.000000e+000
      vertex  8.892187e+001  3.000000e+000  3.851023e+001
      vertex  8.900000e+001  3.000000e+000  3.816541e+001
    endloop
  endfacet
  facet normal  0.000000e+000  1.000000e+000  0.000000e+000
    outer loop
      vertex  0.000000e+000  3.000000e+000  2.000000e+000
      vertex  8.900000e+001  3.000000e+000  3.816541e+001
      vertex  8.600000e+001  3.000000e+000  3.437198e+001
    endloop
  endfacet
  facet normal  0.000000e+000  1.000000e+000  0.000000e+000
    outer loop
      vertex  0.000000e+000  3.000000e+000  2.000000e+000
      vertex  8.600000e+001  3.000000e+000  3.437198e+001
      vertex  8.600000e+001  3.000000e+000  5.000000e+000
    endloop
  endfacet
  facet normal  -0.000000e+000  1.000000e+000  0.000000e+000
    outer loop
      vertex  5.986349e+001  3.000000e+000  4.573850e+001
      vertex  0.000000e+000  3.000000e+000  5.746756e+001
      vertex  6.609870e-002  3.000000e+000  5.797749e+001
    endloop
  endfacet
  facet normal  -0.000000e+000  1.000000e+000  0.000000e+000
    outer loop
      vertex  5.986349e+001  3.000000e+000  4.573850e+001
      vertex  6.609870e-002  3.000000e+000  5.797749e+001
      vertex  2.600258e-001  3.000000e+000  5.845371e+001
    endloop
  endfacet
  facet normal  -0.000000e+000  1.000000e+000  0.000000e+000
    outer loop
      vertex  5.986349e+001  3.000000e+000  4.573850e+001
      vertex  2.600258e-001  3.000000e+000  5.845371e+001
      vertex  5.689629e-001  3.000000e+000  5.886475e+001
    endloop
  endfacet
  facet normal  -0.000000e+000  1.000000e+000  0.000000e+000
    outer loop
      vertex  5.986349e+001  3.000000e+000  4.573850e+001
      vertex  5.689629e-001  3.000000e+000  5.886475e+001
      vertex  9.724897e-001  3.000000e+000  5.918343e+001
    endloop
  endfacet
  facet normal  -0.000000e+000  1.000000e+000  0.000000e+000
    outer loop
      vertex  5.986349e+001  3.000000e+000  4.573850e+001
      vertex  9.724897e-001  3.000000e+000  5.918343e+001
      vertex  1.443933e+000  3.000000e+000  5.938870e+001
    endloop
  endfacet
  facet normal  -0.000000e+000  9.999999e-001  0.000000e+000
    outer loop
      vertex  5.986349e+001  3.000000e+000  4.573850e+001
      vertex  1.443933e+000  3.000000e+000  5.938870e+001
      vertex  2.463496e+000  3.000000e+000  5.941311e+001
    endloop
  endfacet
  facet normal  0.000000e+000  9.999999e-001  -0.000000e+000
    outer loop
      vertex  8.900000e+001  3.000000e+000  8.000000e-001
      vertex  8.893910e+001  3.000000e+000  4.938532e-001
      vertex  5.857865e-001  3.000000e+000  5.857865e-001
    endloop
  endfacet
  facet normal  0.000000e+000  1.000000e+000  -0.000000e+000
    outer loop
      vertex  8.900000e+001  3.000000e+000  8.000000e-001
      vertex  5.857865e-001  3.000000e+000  5.857865e-001
      vertex  2.679492e-001  3.000000e+000  1.000000e+000
    endloop
  endfacet
  facet normal  -0.000000e+000  1.000000e+000  -0.000000e+000
    outer loop
      vertex  8.900000e+001  3.000000e+000  8.000000e-001
      vertex  2.679492e-001  3.000000e+000  1.000000e+000
      vertex  6.814834e-002  3.000000e+000  1.482362e+000
    endloop
  endfacet
  facet normal  -0.000000e+000  1.000000e+000  -0.000000e+000
    outer loop
      vertex  8.900000e+001  3.000000e+000  8.000000e-001
      vertex  6.814834e-002  3.000000e+000  1.482362e+000
      vertex  0.000000e+000  3.000000e+000  2.000000e+000
    endloop
  endfacet
  facet normal  -0.000000e+000  1.000000e+000  0.000000e+000
    outer loop
      vertex  8.900000e+001  3.000000e+000  8.000000e-001
      vertex  0.000000e+000  3.000000e+000  2.000000e+000
      vertex  8.600000e+001  3.000000e+000  5.000000e+000
    endloop
  endfacet
  facet normal  -0.000000e+000  9.999999e-001  0.000000e+000
    outer loop
      vertex  8.900000e+001  3.000000e+000  8.000000e-001
      vertex  8.600000e+001  3.000000e+000  5.000000e+000
      vertex  8.900000e+001  3.000000e+000  5.346410e+000
    endloop
  endfacet
  facet normal  -0.000000e+000  1.000000e+000  0.000000e+000
    outer loop
      vertex  8.838540e+001  3.000000e+000  3.894363e+001
      vertex  6.140000e+001  3.000000e+000  3.899128e+001
      vertex  6.460000e+001  3.000000e+000  3.899128e+001
    endloop
  endfacet
  facet normal  -0.000000e+000  1.000000e+000  0.000000e+000
    outer loop
      vertex  8.838540e+001  3.000000e+000  3.894363e+001
      vertex  6.460000e+001  3.000000e+000  3.899128e+001
      vertex  6.460000e+001  3.000000e+000  4.207767e+001
    endloop
  endfacet
  facet normal  -0.000000e+000  1.000000e+000  0.000000e+000
    outer loop
      vertex  8.838540e+001  3.000000e+000  3.894363e+001
      vertex  6.460000e+001  3.000000e+000  4.207767e+001
      vertex  6.466610e+001  3.000000e+000  4.258760e+001
    endloop
  endfacet
  facet normal  -0.000000e+000  9.999999e-001  0.000000e+000
    outer loop
      vertex  8.838540e+001  3.000000e+000  3.894363e+001
      vertex  6.466610e+001  3.000000e+000  4.258760e+001
      vertex  6.486002e+001  3.000000e+000  4.306382e+001
    endloop
  endfacet
  facet normal  -0.000000e+000  1.000000e+000  0.000000e+000
    outer loop
      vertex  8.838540e+001  3.000000e+000  3.894363e+001
      vertex  6.486002e+001  3.000000e+000  4.306382e+001
      vertex  6.516896e+001  3.000000e+000  4.347486e+001
    endloop
  endfacet
  facet normal  -0.000000e+000  1.000000e+000  0.000000e+000
    outer loop
      vertex  8.838540e+001  3.000000e+000  3.894363e+001
      vertex  6.516896e+001  3.000000e+000  4.347486e+001
      vertex  6.557249e+001  3.000000e+000  4.379354e+001
    endloop
  endfacet
  facet normal  -0.000000e+000  1.000000e+000  0.000000e+000
    outer loop
      vertex  8.838540e+001  3.000000e+000  3.894363e+001
      vertex  6.557249e+001  3.000000e+000  4.379354e+001
      vertex  6.604393e+001  3.000000e+000  4.399881e+001
    endloop
  endfacet
  facet normal  -0.000000e+000  1.000000e+000  0.000000e+000
    outer loop
      vertex  8.838540e+001  3.000000e+000  3.894363e+001
      vertex  6.604393e+001  3.000000e+000  4.399881e+001
      vertex  6.706350e+001  3.000000e+000  4.402322e+001
    endloop
  endfacet
  facet normal  0.000000e+000  1.000000e+000  0.000000e+000
    outer loop
      vertex  8.600000e+001  3.000000e+000  3.437198e+001
      vertex  8.900000e+001  3.000000e+000  3.402557e+001
      vertex  8.780000e+001  3.000000e+000  3.333275e+001
    endloop
  endfacet
  facet normal  0.000000e+000  1.000000e+000  0.000000e+000
    outer loop
      vertex  8.780000e+001  3.000000e+000  3.333275e+001
      vertex  8.900000e+001  3.000000e+000  3.402557e+001
      vertex  8.893084e+001  3.000000e+000  3.370018e+001
    endloop
  endfacet
  facet normal  0.000000e+000  1.000000e+000  0.000000e+000
    outer loop
      vertex  8.780000e+001  3.000000e+000  3.333275e+001
      vertex  8.893084e+001  3.000000e+000  3.370018e+001
      vertex  8.873531e+001  3.000000e+000  3.343105e+001
    endloop
  endfacet
  facet normal  0.000000e+000  1.000000e+000  0.000000e+000
    outer loop
      vertex  8.844721e+001  3.000000e+000  3.326472e+001
      vertex  8.811638e+001  3.000000e+000  3.322995e+001
      vertex  8.873531e+001  3.000000e+000  3.343105e+001
    endloop
  endfacet
  facet normal  0.000000e+000  1.000000e+000  0.000000e+000
    outer loop
      vertex  8.873531e+001  3.000000e+000  3.343105e+001
      vertex  8.811638e+001  3.000000e+000  3.322995e+001
      vertex  8.780000e+001  3.000000e+000  3.333275e+001
    endloop
  endfacet
  facet normal  0.000000e+000  1.000000e+000  0.000000e+000
    outer loop
      vertex  5.857865e-001  3.000000e+000  5.857865e-001
      vertex  8.893910e+001  3.000000e+000  4.938532e-001
      vertex  1.000000e+000  3.000000e+000  2.679492e-001
    endloop
  endfacet
  facet normal  -0.000000e+000  1.000000e+000  0.000000e+000
    outer loop
      vertex  1.000000e+000  3.000000e+000  2.679492e-001
      vertex  8.893910e+001  3.000000e+000  4.938532e-001
      vertex  8.876569e+001  3.000000e+000  2.343146e-001
    endloop
  endfacet
  facet normal  0.000000e+000  9.999999e-001  0.000000e+000
    outer loop
      vertex  1.000000e+000  3.000000e+000  2.679492e-001
      vertex  8.876569e+001  3.000000e+000  2.343146e-001
      vertex  1.482362e+000  3.000000e+000  6.814834e-002
    endloop
  endfacet
  facet normal  -0.000000e+000  1.000000e+000  0.000000e+000
    outer loop
      vertex  1.482362e+000  3.000000e+000  6.814834e-002
      vertex  8.876569e+001  3.000000e+000  2.343146e-001
      vertex  8.850615e+001  3.000000e+000  6.089637e-002
    endloop
  endfacet
  facet normal  0.000000e+000  1.000000e+000  0.000000e+000
    outer loop
      vertex  1.482362e+000  3.000000e+000  6.814834e-002
      vertex  8.850615e+001  3.000000e+000  6.089637e-002
      vertex  2.000000e+000  3.000000e+000  0.000000e+000
    endloop
  endfacet
  facet normal  0.000000e+000  9.999999e-001  0.000000e+000
    outer loop
      vertex  2.000000e+000  3.000000e+000  0.000000e+000
      vertex  8.850615e+001  3.000000e+000  6.089637e-002
      vertex  8.820000e+001  3.000000e+000  0.000000e+000
    endloop
  endfacet
  facet normal  0.000000e+000  1.000000e+000  0.000000e+000
    outer loop
      vertex  8.893084e+001  3.000000e+000  5.671800e+000
      vertex  8.900000e+001  3.000000e+000  5.346410e+000
      vertex  8.873531e+001  3.000000e+000  5.940926e+000
    endloop
  endfacet
  facet normal  0.000000e+000  9.999999e-001  0.000000e+000
    outer loop
      vertex  8.873531e+001  3.000000e+000  5.940926e+000
      vertex  8.900000e+001  3.000000e+000  5.346410e+000
      vertex  8.600000e+001  3.000000e+000  5.000000e+000
    endloop
  endfacet
  facet normal  0.000000e+000  1.000000e+000  0.000000e+000
    outer loop
      vertex  8.873531e+001  3.000000e+000  5.940926e+000
      vertex  8.600000e+001  3.000000e+000  5.000000e+000
      vertex  8.780000e+001  3.000000e+000  6.039230e+000
    endloop
  endfacet
  facet normal  0.000000e+000  1.000000e+000  0.000000e+000
    outer loop
      vertex  8.844721e+001  3.000000e+000  6.107255e+000
      vertex  8.873531e+001  3.000000e+000  5.940926e+000
      vertex  8.811638e+001  3.000000e+000  6.142028e+000
    endloop
  endfacet
  facet normal  0.000000e+000  1.000000e+000  0.000000e+000
    outer loop
      vertex  8.811638e+001  3.000000e+000  6.142028e+000
      vertex  8.873531e+001  3.000000e+000  5.940926e+000
      vertex  8.780000e+001  3.000000e+000  6.039230e+000
    endloop
  endfacet
  facet normal  0.000000e+000 -1.000000e+000  -0.000000e+000
    outer loop
      vertex  8.900000e+001  0.000000e+000  3.402557e+001
      vertex  8.900000e+001  0.000000e+000  3.816541e+001
      vertex  8.600000e+001  0.000000e+000  3.437198e+001
    endloop
  endfacet
  facet normal  0.000000e+000 -1.000000e+000  0.000000e+000
    outer loop
      vertex  1.952133e+000  0.000000e+000  5.946699e+001
      vertex  1.443933e+000  0.000000e+000  5.938870e+001
      vertex  2.463496e+000  0.000000e+000  5.941311e+001
    endloop
  endfacet
  facet normal  0.000000e+000 -1.000000e+000  0.000000e+000
    outer loop
      vertex  6.655213e+001  0.000000e+000  4.407710e+001
      vertex  6.604393e+001  0.000000e+000  4.399881e+001
      vertex  6.706350e+001  0.000000e+000  4.402322e+001
    endloop
  endfacet
  facet normal  -0.000000e+000 -1.000000e+000  0.000000e+000
    outer loop
      vertex  0.000000e+000  0.000000e+000  2.000000e+000
      vertex  8.600000e+001  0.000000e+000  5.000000e+000
      vertex  8.600000e+001  0.000000e+000  3.437198e+001
    endloop
  endfacet
  facet normal  -0.000000e+000 -1.000000e+000  0.000000e+000
    outer loop
      vertex  0.000000e+000  0.000000e+000  2.000000e+000
      vertex  8.600000e+001  0.000000e+000  3.437198e+001
      vertex  8.900000e+001  0.000000e+000  3.816541e+001
    endloop
  endfacet
  facet normal  -0.000000e+000 -1.000000e+000  0.000000e+000
    outer loop
      vertex  0.000000e+000  0.000000e+000  2.000000e+000
      vertex  8.900000e+001  0.000000e+000  3.816541e+001
      vertex  8.892187e+001  0.000000e+000  3.851023e+001
    endloop
  endfacet
  facet normal  -0.000000e+000 -1.000000e+000  0.000000e+000
    outer loop
      vertex  0.000000e+000  0.000000e+000  2.000000e+000
      vertex  8.892187e+001  0.000000e+000  3.851023e+001
      vertex  8.870274e+001  0.000000e+000  3.878771e+001
    endloop
  endfacet
  facet normal  -0.000000e+000 -1.000000e+000  0.000000e+000
    outer loop
      vertex  0.000000e+000  0.000000e+000  2.000000e+000
      vertex  8.870274e+001  0.000000e+000  3.878771e+001
      vertex  8.838540e+001  0.000000e+000  3.894363e+001
    endloop
  endfacet
  facet normal  -0.000000e+000 -1.000000e+000  0.000000e+000
    outer loop
      vertex  0.000000e+000  0.000000e+000  2.000000e+000
      vertex  8.838540e+001  0.000000e+000  3.894363e+001
      vertex  6.140000e+001  0.000000e+000  3.899128e+001
    endloop
  endfacet
  facet normal  -0.000000e+000 -1.000000e+000  0.000000e+000
    outer loop
      vertex  0.000000e+000  0.000000e+000  2.000000e+000
      vertex  6.140000e+001  0.000000e+000  3.899128e+001
      vertex  6.140000e+001  0.000000e+000  4.379295e+001
    endloop
  endfacet
  facet normal  -0.000000e+000 -1.000000e+000  0.000000e+000
    outer loop
      vertex  0.000000e+000  0.000000e+000  2.000000e+000
      vertex  6.140000e+001  0.000000e+000  4.379295e+001
      vertex  6.132893e+001  0.000000e+000  4.432137e+001
    endloop
  endfacet
  facet normal  -0.000000e+000 -1.000000e+000  0.000000e+000
    outer loop
      vertex  0.000000e+000  0.000000e+000  2.000000e+000
      vertex  6.132893e+001  0.000000e+000  4.432137e+001
      vertex  6.112077e+001  0.000000e+000  4.481224e+001
    endloop
  endfacet
  facet normal  -0.000000e+000 -1.000000e+000  0.000000e+000
    outer loop
      vertex  0.000000e+000  0.000000e+000  2.000000e+000
      vertex  6.112077e+001  0.000000e+000  4.481224e+001
      vertex  6.079032e+001  0.000000e+000  4.523066e+001
    endloop
  endfacet
  facet normal  -0.000000e+000 -1.000000e+000  0.000000e+000
    outer loop
      vertex  0.000000e+000  0.000000e+000  2.000000e+000
      vertex  6.079032e+001  0.000000e+000  4.523066e+001
      vertex  6.036106e+001  0.000000e+000  4.554691e+001
    endloop
  endfacet
  facet normal  -0.000000e+000 -1.000000e+000  0.000000e+000
    outer loop
      vertex  0.000000e+000  0.000000e+000  2.000000e+000
      vertex  6.036106e+001  0.000000e+000  4.554691e+001
      vertex  5.986349e+001  0.000000e+000  4.573850e+001
    endloop
  endfacet
  facet normal  -0.000000e+000 -1.000000e+000  0.000000e+000
    outer loop
      vertex  0.000000e+000  0.000000e+000  2.000000e+000
      vertex  5.986349e+001  0.000000e+000  4.573850e+001
      vertex  0.000000e+000  0.000000e+000  5.746756e+001
    endloop
  endfacet
  facet normal  0.000000e+000 -9.999999e-001  -0.000000e+000
    outer loop
      vertex  5.986349e+001  0.000000e+000  4.573850e+001
      vertex  2.463496e+000  0.000000e+000  5.941311e+001
      vertex  1.443933e+000  0.000000e+000  5.938870e+001
    endloop
  endfacet
  facet normal  0.000000e+000 -1.000000e+000  -0.000000e+000
    outer loop
      vertex  5.986349e+001  0.000000e+000  4.573850e+001
      vertex  1.443933e+000  0.000000e+000  5.938870e+001
      vertex  9.724897e-001  0.000000e+000  5.918343e+001
    endloop
  endfacet
  facet normal  0.000000e+000 -1.000000e+000  -0.000000e+000
    outer loop
      vertex  5.986349e+001  0.000000e+000  4.573850e+001
      vertex  9.724897e-001  0.000000e+000  5.918343e+001
      vertex  5.689629e-001  0.000000e+000  5.886475e+001
    endloop
  endfacet
  facet normal  0.000000e+000 -1.000000e+000  -0.000000e+000
    outer loop
      vertex  5.986349e+001  0.000000e+000  4.573850e+001
      vertex  5.689629e-001  0.000000e+000  5.886475e+001
      vertex  2.600258e-001  0.000000e+000  5.845371e+001
    endloop
  endfacet
  facet normal  0.000000e+000 -1.000000e+000  -0.000000e+000
    outer loop
      vertex  5.986349e+001  0.000000e+000  4.573850e+001
      vertex  2.600258e-001  0.000000e+000  5.845371e+001
      vertex  6.609870e-002  0.000000e+000  5.797749e+001
    endloop
  endfacet
  facet normal  0.000000e+000 -1.000000e+000  -0.000000e+000
    outer loop
      vertex  5.986349e+001  0.000000e+000  4.573850e+001
      vertex  6.609870e-002  0.000000e+000  5.797749e+001
      vertex  0.000000e+000  0.000000e+000  5.746756e+001
    endloop
  endfacet
  facet normal  0.000000e+000 -9.999999e-001  -0.000000e+000
    outer loop
      vertex  8.900000e+001  0.000000e+000  8.000000e-001
      vertex  8.900000e+001  0.000000e+000  5.346410e+000
      vertex  8.600000e+001  0.000000e+000  5.000000e+000
    endloop
  endfacet
  facet normal  0.000000e+000 -1.000000e+000  -0.000000e+000
    outer loop
      vertex  8.900000e+001  0.000000e+000  8.000000e-001
      vertex  8.600000e+001  0.000000e+000  5.000000e+000
      vertex  0.000000e+000  0.000000e+000  2.000000e+000
    endloop
  endfacet
  facet normal  0.000000e+000 -1.000000e+000  0.000000e+000
    outer loop
      vertex  8.900000e+001  0.000000e+000  8.000000e-001
      vertex  0.000000e+000  0.000000e+000  2.000000e+000
      vertex  6.814834e-002  0.000000e+000  1.482362e+000
    endloop
  endfacet
  facet normal  0.000000e+000 -1.000000e+000  0.000000e+000
    outer loop
      vertex  8.900000e+001  0.000000e+000  8.000000e-001
      vertex  6.814834e-002  0.000000e+000  1.482362e+000
      vertex  2.679492e-001  0.000000e+000  1.000000e+000
    endloop
  endfacet
  facet normal  0.000000e+000 -1.000000e+000  0.000000e+000
    outer loop
      vertex  8.900000e+001  0.000000e+000  8.000000e-001
      vertex  2.679492e-001  0.000000e+000  1.000000e+000
      vertex  5.857865e-001  0.000000e+000  5.857865e-001
    endloop
  endfacet
  facet normal  0.000000e+000 -9.999999e-001  0.000000e+000
    outer loop
      vertex  8.900000e+001  0.000000e+000  8.000000e-001
      vertex  5.857865e-001  0.000000e+000  5.857865e-001
      vertex  8.893910e+001  0.000000e+000  4.938532e-001
    endloop
  endfacet
  facet normal  0.000000e+000 -1.000000e+000  -0.000000e+000
    outer loop
      vertex  8.838540e+001  0.000000e+000  3.894363e+001
      vertex  6.706350e+001  0.000000e+000  4.402322e+001
      vertex  6.604393e+001  0.000000e+000  4.399881e+001
    endloop
  endfacet
  facet normal  0.000000e+000 -1.000000e+000  -0.000000e+000
    outer loop
      vertex  8.838540e+001  0.000000e+000  3.894363e+001
      vertex  6.604393e+001  0.000000e+000  4.399881e+001
      vertex  6.557249e+001  0.000000e+000  4.379354e+001
    endloop
  endfacet
  facet normal  0.000000e+000 -1.000000e+000  -0.000000e+000
    outer loop
      vertex  8.838540e+001  0.000000e+000  3.894363e+001
      vertex  6.557249e+001  0.000000e+000  4.379354e+001
      vertex  6.516896e+001  0.000000e+000  4.347486e+001
    endloop
  endfacet
  facet normal  0.000000e+000 -1.000000e+000  -0.000000e+000
    outer loop
      vertex  8.838540e+001  0.000000e+000  3.894363e+001
      vertex  6.516896e+001  0.000000e+000  4.347486e+001
      vertex  6.486002e+001  0.000000e+000  4.306382e+001
    endloop
  endfacet
  facet normal  0.000000e+000 -9.999999e-001  -0.000000e+000
    outer loop
      vertex  8.838540e+001  0.000000e+000  3.894363e+001
      vertex  6.486002e+001  0.000000e+000  4.306382e+001
      vertex  6.466610e+001  0.000000e+000  4.258760e+001
    endloop
  endfacet
  facet normal  0.000000e+000 -1.000000e+000  -0.000000e+000
    outer loop
      vertex  8.838540e+001  0.000000e+000  3.894363e+001
      vertex  6.466610e+001  0.000000e+000  4.258760e+001
      vertex  6.460000e+001  0.000000e+000  4.207767e+001
    endloop
  endfacet
  facet normal  0.000000e+000 -1.000000e+000  0.000000e+000
    outer loop
      vertex  8.838540e+001  0.000000e+000  3.894363e+001
      vertex  6.460000e+001  0.000000e+000  4.207767e+001
      vertex  6.460000e+001  0.000000e+000  3.899128e+001
    endloop
  endfacet
  facet normal  -0.000000e+000 -1.000000e+000  -0.000000e+000
    outer loop
      vertex  8.838540e+001  0.000000e+000  3.894363e+001
      vertex  6.460000e+001  0.000000e+000  3.899128e+001
      vertex  6.140000e+001  0.000000e+000  3.899128e+001
    endloop
  endfacet
  facet normal  0.000000e+000 -1.000000e+000  0.000000e+000
    outer loop
      vertex  8.873531e+001  0.000000e+000  3.343105e+001
      vertex  8.893084e+001  0.000000e+000  3.370018e+001
      vertex  8.780000e+001  0.000000e+000  3.333275e+001
    endloop
  endfacet
  facet normal  0.000000e+000 -1.000000e+000  0.000000e+000
    outer loop
      vertex  8.780000e+001  0.000000e+000  3.333275e+001
      vertex  8.893084e+001  0.000000e+000  3.370018e+001
      vertex  8.900000e+001  0.000000e+000  3.402557e+001
    endloop
  endfacet
  facet normal  -0.000000e+000 -1.000000e+000  0.000000e+000
    outer loop
      vertex  8.780000e+001  0.000000e+000  3.333275e+001
      vertex  8.900000e+001  0.000000e+000  3.402557e+001
      vertex  8.600000e+001  0.000000e+000  3.437198e+001
    endloop
  endfacet
  facet normal  0.000000e+000 -1.000000e+000  0.000000e+000
    outer loop
      vertex  8.844721e+001  0.000000e+000  3.326472e+001
      vertex  8.873531e+001  0.000000e+000  3.343105e+001
      vertex  8.811638e+001  0.000000e+000  3.322995e+001
    endloop
  endfacet
  facet normal  0.000000e+000 -1.000000e+000  0.000000e+000
    outer loop
      vertex  8.811638e+001  0.000000e+000  3.322995e+001
      vertex  8.873531e+001  0.000000e+000  3.343105e+001
      vertex  8.780000e+001  0.000000e+000  3.333275e+001
    endloop
  endfacet
  facet normal  -0.000000e+000 -1.000000e+000  0.000000e+000
    outer loop
      vertex  1.000000e+000  0.000000e+000  2.679492e-001
      vertex  8.893910e+001  0.000000e+000  4.938532e-001
      vertex  5.857865e-001  0.000000e+000  5.857865e-001
    endloop
  endfacet
  facet normal  0.000000e+000 -1.000000e+000  0.000000e+000
    outer loop
      vertex  8.893910e+001  0.000000e+000  4.938532e-001
      vertex  1.000000e+000  0.000000e+000  2.679492e-001
      vertex  8.876569e+001  0.000000e+000  2.343146e-001
    endloop
  endfacet
  facet normal  -0.000000e+000 -9.999999e-001  0.000000e+000
    outer loop
      vertex  8.876569e+001  0.000000e+000  2.343146e-001
      vertex  1.000000e+000  0.000000e+000  2.679492e-001
      vertex  1.482362e+000  0.000000e+000  6.814834e-002
    endloop
  endfacet
  facet normal  0.000000e+000 -1.000000e+000  0.000000e+000
    outer loop
      vertex  8.876569e+001  0.000000e+000  2.343146e-001
      vertex  1.482362e+000  0.000000e+000  6.814834e-002
      vertex  8.850615e+001  0.000000e+000  6.089637e-002
    endloop
  endfacet
  facet normal  -0.000000e+000 -1.000000e+000  0.000000e+000
    outer loop
      vertex  8.850615e+001  0.000000e+000  6.089637e-002
      vertex  1.482362e+000  0.000000e+000  6.814834e-002
      vertex  2.000000e+000  0.000000e+000  0.000000e+000
    endloop
  endfacet
  facet normal  0.000000e+000 -9.999999e-001  0.000000e+000
    outer loop
      vertex  8.850615e+001  0.000000e+000  6.089637e-002
      vertex  2.000000e+000  0.000000e+000  0.000000e+000
      vertex  8.820000e+001  0.000000e+000  0.000000e+000
    endloop
  endfacet
  facet normal  0.000000e+000 -1.000000e+000  0.000000e+000
    outer loop
      vertex  8.780000e+001  0.000000e+000  6.039230e+000
      vertex  8.600000e+001  0.000000e+000  5.000000e+000
      vertex  8.873531e+001  0.000000e+000  5.940926e+000
    endloop
  endfacet
  facet normal  0.000000e+000 -9.999999e-001  -0.000000e+000
    outer loop
      vertex  8.873531e+001  0.000000e+000  5.940926e+000
      vertex  8.600000e+001  0.000000e+000  5.000000e+000
      vertex  8.900000e+001  0.000000e+000  5.346410e+000
    endloop
  endfacet
  facet normal  0.000000e+000 -1.000000e+000  0.000000e+000
    outer loop
      vertex  8.873531e+001  0.000000e+000  5.940926e+000
      vertex  8.900000e+001  0.000000e+000  5.346410e+000
      vertex  8.893084e+001  0.000000e+000  5.671800e+000
    endloop
  endfacet
  facet normal  0.000000e+000 -1.000000e+000  0.000000e+000
    outer loop
      vertex  8.844721e+001  0.000000e+000  6.107255e+000
      vertex  8.811638e+001  0.000000e+000  6.142028e+000
      vertex  8.873531e+001  0.000000e+000  5.940926e+000
    endloop
  endfacet
  facet normal  0.000000e+000 -1.000000e+000  0.000000e+000
    outer loop
      vertex  8.873531e+001  0.000000e+000  5.940926e+000
      vertex  8.811638e+001  0.000000e+000  6.142028e+000
      vertex  8.780000e+001  0.000000e+000  6.039230e+000
    endloop
  endfacet
  facet normal  2.317479e-001  0.000000e+000  9.727758e-001
    outer loop
      vertex  5.986349e+001  3.000000e+000  4.573850e+001
      vertex  2.463496e+000  3.000000e+000  5.941311e+001
      vertex  5.986349e+001  0.000000e+000  4.573850e+001
    endloop
  endfacet
  facet normal  2.317479e-001  0.000000e+000  9.727758e-001
    outer loop
      vertex  5.986349e+001  0.000000e+000  4.573850e+001
      vertex  2.463496e+000  3.000000e+000  5.941311e+001
      vertex  2.463496e+000  0.000000e+000  5.941311e+001
    endloop
  endfacet
  facet normal  1.000000e+000  0.000000e+000  0.000000e+000
    outer loop
      vertex  6.140000e+001  3.000000e+000  3.899128e+001
      vertex  6.140000e+001  3.000000e+000  4.379295e+001
      vertex  6.140000e+001  0.000000e+000  3.899128e+001
    endloop
  endfacet
  facet normal  1.000000e+000  0.000000e+000  0.000000e+000
    outer loop
      vertex  6.140000e+001  0.000000e+000  3.899128e+001
      vertex  6.140000e+001  3.000000e+000  4.379295e+001
      vertex  6.140000e+001  0.000000e+000  4.379295e+001
    endloop
  endfacet
  facet normal  9.910760e-001  0.000000e+000  1.332982e-001
    outer loop
      vertex  6.140000e+001  0.000000e+000  4.379295e+001
      vertex  6.140000e+001  3.000000e+000  4.379295e+001
      vertex  6.132893e+001  0.000000e+000  4.432137e+001
    endloop
  endfacet
  facet normal  9.910760e-001  -0.000000e+000  1.332982e-001
    outer loop
      vertex  6.132893e+001  0.000000e+000  4.432137e+001
      vertex  6.140000e+001  3.000000e+000  4.379295e+001
      vertex  6.132893e+001  3.000000e+000  4.432137e+001
    endloop
  endfacet
  facet normal  9.206415e-001  0.000000e+000  3.904089e-001
    outer loop
      vertex  6.132893e+001  0.000000e+000  4.432137e+001
      vertex  6.132893e+001  3.000000e+000  4.432137e+001
      vertex  6.112077e+001  0.000000e+000  4.481224e+001
    endloop
  endfacet
  facet normal  9.206415e-001  -0.000000e+000  3.904089e-001
    outer loop
      vertex  6.112077e+001  0.000000e+000  4.481224e+001
      vertex  6.132893e+001  3.000000e+000  4.432137e+001
      vertex  6.112077e+001  3.000000e+000  4.481224e+001
    endloop
  endfacet
  facet normal  7.847749e-001  0.000000e+000  6.197809e-001
    outer loop
      vertex  6.112077e+001  0.000000e+000  4.481224e+001
      vertex  6.112077e+001  3.000000e+000  4.481224e+001
      vertex  6.079032e+001  0.000000e+000  4.523066e+001
    endloop
  endfacet
  facet normal  7.847749e-001  -0.000000e+000  6.197809e-001
    outer loop
      vertex  6.079032e+001  0.000000e+000  4.523066e+001
      vertex  6.112077e+001  3.000000e+000  4.481224e+001
      vertex  6.079032e+001  3.000000e+000  4.523066e+001
    endloop
  endfacet
  facet normal  5.931417e-001  0.000000e+000  8.050981e-001
    outer loop
      vertex  6.079032e+001  0.000000e+000  4.523066e+001
      vertex  6.079032e+001  3.000000e+000  4.523066e+001
      vertex  6.036106e+001  0.000000e+000  4.554691e+001
    endloop
  endfacet
  facet normal  5.931417e-001  -0.000000e+000  8.050981e-001
    outer loop
      vertex  6.036106e+001  0.000000e+000  4.554691e+001
      vertex  6.079032e+001  3.000000e+000  4.523066e+001
      vertex  6.036106e+001  3.000000e+000  4.554691e+001
    endloop
  endfacet
  facet normal  3.593410e-001  0.000000e+000  9.332063e-001
    outer loop
      vertex  6.036106e+001  0.000000e+000  4.554691e+001
      vertex  6.036106e+001  3.000000e+000  4.554691e+001
      vertex  5.986349e+001  0.000000e+000  4.573850e+001
    endloop
  endfacet
  facet normal  3.593410e-001  -0.000000e+000  9.332063e-001
    outer loop
      vertex  5.986349e+001  0.000000e+000  4.573850e+001
      vertex  6.036106e+001  3.000000e+000  4.554691e+001
      vertex  5.986349e+001  3.000000e+000  4.573850e+001
    endloop
  endfacet
  facet normal  2.317479e-001  0.000000e+000  9.727759e-001
    outer loop
      vertex  8.838540e+001  3.000000e+000  3.894363e+001
      vertex  6.706350e+001  3.000000e+000  4.402322e+001
      vertex  8.838540e+001  0.000000e+000  3.894363e+001
    endloop
  endfacet
  facet normal  2.317479e-001  0.000000e+000  9.727759e-001
    outer loop
      vertex  8.838540e+001  0.000000e+000  3.894363e+001
      vertex  6.706350e+001  3.000000e+000  4.402322e+001
      vertex  6.706350e+001  0.000000e+000  4.402322e+001
    endloop
  endfacet
  facet normal -9.999999e-001  0.000000e+000  0.000000e+000
    outer loop
      vertex  6.460000e+001  3.000000e+000  4.207767e+001
      vertex  6.460000e+001  3.000000e+000  3.899128e+001
      vertex  6.460000e+001  0.000000e+000  4.207767e+001
    endloop
  endfacet
  facet normal -9.999999e-001  0.000000e+000  0.000000e+000
    outer loop
      vertex  6.460000e+001  0.000000e+000  4.207767e+001
      vertex  6.460000e+001  3.000000e+000  3.899128e+001
      vertex  6.460000e+001  0.000000e+000  3.899128e+001
    endloop
  endfacet
  facet normal  1.047821e-001  0.000000e+000  9.944952e-001
    outer loop
      vertex  6.706350e+001  0.000000e+000  4.402322e+001
      vertex  6.706350e+001  3.000000e+000  4.402322e+001
      vertex  6.655213e+001  0.000000e+000  4.407710e+001
    endloop
  endfacet
  facet normal  1.047821e-001  -0.000000e+000  9.944952e-001
    outer loop
      vertex  6.655213e+001  0.000000e+000  4.407710e+001
      vertex  6.706350e+001  3.000000e+000  4.402322e+001
      vertex  6.655213e+001  3.000000e+000  4.407710e+001
    endloop
  endfacet
  facet normal -1.522478e-001  0.000000e+000  9.883423e-001
    outer loop
      vertex  6.655213e+001  0.000000e+000  4.407710e+001
      vertex  6.655213e+001  3.000000e+000  4.407710e+001
      vertex  6.604393e+001  0.000000e+000  4.399881e+001
    endloop
  endfacet
  facet normal -1.522478e-001  0.000000e+000  9.883423e-001
    outer loop
      vertex  6.604393e+001  0.000000e+000  4.399881e+001
      vertex  6.655213e+001  3.000000e+000  4.407710e+001
      vertex  6.604393e+001  3.000000e+000  4.399881e+001
    endloop
  endfacet
  facet normal -3.992062e-001  0.000000e+000  9.168612e-001
    outer loop
      vertex  6.604393e+001  0.000000e+000  4.399881e+001
      vertex  6.604393e+001  3.000000e+000  4.399881e+001
      vertex  6.557249e+001  0.000000e+000  4.379354e+001
    endloop
  endfacet
  facet normal -3.992062e-001  0.000000e+000  9.168612e-001
    outer loop
      vertex  6.557249e+001  0.000000e+000  4.379354e+001
      vertex  6.604393e+001  3.000000e+000  4.399881e+001
      vertex  6.557249e+001  3.000000e+000  4.379354e+001
    endloop
  endfacet
  facet normal -6.197810e-001  0.000000e+000  7.847750e-001
    outer loop
      vertex  6.557249e+001  0.000000e+000  4.379354e+001
      vertex  6.557249e+001  3.000000e+000  4.379354e+001
      vertex  6.516896e+001  0.000000e+000  4.347486e+001
    endloop
  endfacet
  facet normal -6.197810e-001  0.000000e+000  7.847750e-001
    outer loop
      vertex  6.516896e+001  0.000000e+000  4.347486e+001
      vertex  6.557249e+001  3.000000e+000  4.379354e+001
      vertex  6.516896e+001  3.000000e+000  4.347486e+001
    endloop
  endfacet
  facet normal -7.993845e-001  0.000000e+000  6.008199e-001
    outer loop
      vertex  6.516896e+001  0.000000e+000  4.347486e+001
      vertex  6.516896e+001  3.000000e+000  4.347486e+001
      vertex  6.486002e+001  0.000000e+000  4.306382e+001
    endloop
  endfacet
  facet normal -7.993845e-001  0.000000e+000  6.008199e-001
    outer loop
      vertex  6.486002e+001  0.000000e+000  4.306382e+001
      vertex  6.516896e+001  3.000000e+000  4.347486e+001
      vertex  6.486002e+001  3.000000e+000  4.306382e+001
    endloop
  endfacet
  facet normal -9.261554e-001  0.000000e+000  3.771420e-001
    outer loop
      vertex  6.486002e+001  0.000000e+000  4.306382e+001
      vertex  6.486002e+001  3.000000e+000  4.306382e+001
      vertex  6.466610e+001  0.000000e+000  4.258760e+001
    endloop
  endfacet
  facet normal -9.261554e-001  0.000000e+000  3.771420e-001
    outer loop
      vertex  6.466610e+001  0.000000e+000  4.258760e+001
      vertex  6.486002e+001  3.000000e+000  4.306382e+001
      vertex  6.466610e+001  3.000000e+000  4.258760e+001
    endloop
  endfacet
  facet normal -9.917026e-001  0.000000e+000  1.285532e-001
    outer loop
      vertex  6.466610e+001  0.000000e+000  4.258760e+001
      vertex  6.466610e+001  3.000000e+000  4.258760e+001
      vertex  6.460000e+001  0.000000e+000  4.207767e+001
    endloop
  endfacet
  facet normal -9.917026e-001  0.000000e+000  1.285532e-001
    outer loop
      vertex  6.460000e+001  0.000000e+000  4.207767e+001
      vertex  6.466610e+001  3.000000e+000  4.258760e+001
      vertex  6.460000e+001  3.000000e+000  4.207767e+001
    endloop
  endfacet
  facet normal -1.000000e+000  0.000000e+000  0.000000e+000
    outer loop
      vertex  0.000000e+000  3.000000e+000  2.000000e+000
      vertex  0.000000e+000  0.000000e+000  2.000000e+000
      vertex  0.000000e+000  3.000000e+000  5.746756e+001
    endloop
  endfacet
  facet normal -1.000000e+000  -0.000000e+000  0.000000e+000
    outer loop
      vertex  0.000000e+000  3.000000e+000  5.746756e+001
      vertex  0.000000e+000  0.000000e+000  2.000000e+000
      vertex  0.000000e+000  0.000000e+000  5.746756e+001
    endloop
  endfacet
  facet normal  1.047757e-001  0.000000e+000  9.944959e-001
    outer loop
      vertex  2.463496e+000  0.000000e+000  5.941311e+001
      vertex  2.463496e+000  3.000000e+000  5.941311e+001
      vertex  1.952133e+000  0.000000e+000  5.946699e+001
    endloop
  endfacet
  facet normal  1.047757e-001  -0.000000e+000  9.944959e-001
    outer loop
      vertex  1.952133e+000  0.000000e+000  5.946699e+001
      vertex  2.463496e+000  3.000000e+000  5.941311e+001
      vertex  1.952133e+000  3.000000e+000  5.946699e+001
    endloop
  endfacet
  facet normal -1.522485e-001  0.000000e+000  9.883422e-001
    outer loop
      vertex  1.952133e+000  0.000000e+000  5.946699e+001
      vertex  1.952133e+000  3.000000e+000  5.946699e+001
      vertex  1.443933e+000  0.000000e+000  5.938870e+001
    endloop
  endfacet
  facet normal -1.522485e-001  0.000000e+000  9.883422e-001
    outer loop
      vertex  1.443933e+000  0.000000e+000  5.938870e+001
      vertex  1.952133e+000  3.000000e+000  5.946699e+001
      vertex  1.443933e+000  3.000000e+000  5.938870e+001
    endloop
  endfacet
  facet normal -3.992057e-001  0.000000e+000  9.168613e-001
    outer loop
      vertex  1.443933e+000  0.000000e+000  5.938870e+001
      vertex  1.443933e+000  3.000000e+000  5.938870e+001
      vertex  9.724897e-001  0.000000e+000  5.918343e+001
    endloop
  endfacet
  facet normal -3.992057e-001  0.000000e+000  9.168613e-001
    outer loop
      vertex  9.724897e-001  0.000000e+000  5.918343e+001
      vertex  1.443933e+000  3.000000e+000  5.938870e+001
      vertex  9.724897e-001  3.000000e+000  5.918343e+001
    endloop
  endfacet
  facet normal -6.197759e-001  0.000000e+000  7.847789e-001
    outer loop
      vertex  9.724897e-001  0.000000e+000  5.918343e+001
      vertex  9.724897e-001  3.000000e+000  5.918343e+001
      vertex  5.689629e-001  0.000000e+000  5.886475e+001
    endloop
  endfacet
  facet normal -6.197759e-001  0.000000e+000  7.847789e-001
    outer loop
      vertex  5.689629e-001  0.000000e+000  5.886475e+001
      vertex  9.724897e-001  3.000000e+000  5.918343e+001
      vertex  5.689629e-001  3.000000e+000  5.886475e+001
    endloop
  endfacet
  facet normal -7.993870e-001  0.000000e+000  6.008164e-001
    outer loop
      vertex  5.689629e-001  0.000000e+000  5.886475e+001
      vertex  5.689629e-001  3.000000e+000  5.886475e+001
      vertex  2.600258e-001  0.000000e+000  5.845371e+001
    endloop
  endfacet
  facet normal -7.993870e-001  0.000000e+000  6.008164e-001
    outer loop
      vertex  2.600258e-001  0.000000e+000  5.845371e+001
      vertex  5.689629e-001  3.000000e+000  5.886475e+001
      vertex  2.600258e-001  3.000000e+000  5.845371e+001
    endloop
  endfacet
  facet normal -9.261522e-001  0.000000e+000  3.771499e-001
    outer loop
      vertex  2.600258e-001  0.000000e+000  5.845371e+001
      vertex  2.600258e-001  3.000000e+000  5.845371e+001
      vertex  6.609870e-002  0.000000e+000  5.797749e+001
    endloop
  endfacet
  facet normal -9.261522e-001  0.000000e+000  3.771499e-001
    outer loop
      vertex  6.609870e-002  0.000000e+000  5.797749e+001
      vertex  2.600258e-001  3.000000e+000  5.845371e+001
      vertex  6.609870e-002  3.000000e+000  5.797749e+001
    endloop
  endfacet
  facet normal -9.917033e-001  0.000000e+000  1.285477e-001
    outer loop
      vertex  6.609870e-002  0.000000e+000  5.797749e+001
      vertex  6.609870e-002  3.000000e+000  5.797749e+001
      vertex  0.000000e+000  0.000000e+000  5.746756e+001
    endloop
  endfacet
  facet normal -9.917033e-001  0.000000e+000  1.285477e-001
    outer loop
      vertex  0.000000e+000  0.000000e+000  5.746756e+001
      vertex  6.609870e-002  3.000000e+000  5.797749e+001
      vertex  0.000000e+000  3.000000e+000  5.746756e+001
    endloop
  endfacet
  facet normal  0.000000e+000  0.000000e+000 -1.000000e+000
    outer loop
      vertex  8.820000e+001  3.000000e+000  0.000000e+000
      vertex  8.820000e+001  0.000000e+000  0.000000e+000
      vertex  2.000000e+000  3.000000e+000  0.000000e+000
    endloop
  endfacet
  facet normal  0.000000e+000  0.000000e+000 -1.000000e+000
    outer loop
      vertex  2.000000e+000  3.000000e+000  0.000000e+000
      vertex  8.820000e+001  0.000000e+000  0.000000e+000
      vertex  2.000000e+000  0.000000e+000  0.000000e+000
    endloop
  endfacet
  facet normal -9.914448e-001  -0.000000e+000 -1.305262e-001
    outer loop
      vertex  0.000000e+000  0.000000e+000  2.000000e+000
      vertex  0.000000e+000  3.000000e+000  2.000000e+000
      vertex  6.814834e-002  0.000000e+000  1.482362e+000
    endloop
  endfacet
  facet normal -9.914448e-001  0.000000e+000 -1.305262e-001
    outer loop
      vertex  6.814834e-002  0.000000e+000  1.482362e+000
      vertex  0.000000e+000  3.000000e+000  2.000000e+000
      vertex  6.814834e-002  3.000000e+000  1.482362e+000
    endloop
  endfacet
  facet normal -9.238795e-001  -0.000000e+000 -3.826834e-001
    outer loop
      vertex  6.814834e-002  0.000000e+000  1.482362e+000
      vertex  6.814834e-002  3.000000e+000  1.482362e+000
      vertex  2.679492e-001  0.000000e+000  1.000000e+000
    endloop
  endfacet
  facet normal -9.238795e-001  0.000000e+000 -3.826834e-001
    outer loop
      vertex  2.679492e-001  0.000000e+000  1.000000e+000
      vertex  6.814834e-002  3.000000e+000  1.482362e+000
      vertex  2.679492e-001  3.000000e+000  1.000000e+000
    endloop
  endfacet
  facet normal -7.933533e-001  -0.000000e+000 -6.087615e-001
    outer loop
      vertex  2.679492e-001  0.000000e+000  1.000000e+000
      vertex  2.679492e-001  3.000000e+000  1.000000e+000
      vertex  5.857865e-001  0.000000e+000  5.857865e-001
    endloop
  endfacet
  facet normal -7.933533e-001  0.000000e+000 -6.087615e-001
    outer loop
      vertex  5.857865e-001  0.000000e+000  5.857865e-001
      vertex  2.679492e-001  3.000000e+000  1.000000e+000
      vertex  5.857865e-001  3.000000e+000  5.857865e-001
    endloop
  endfacet
  facet normal -6.087615e-001  -0.000000e+000 -7.933533e-001
    outer loop
      vertex  5.857865e-001  0.000000e+000  5.857865e-001
      vertex  5.857865e-001  3.000000e+000  5.857865e-001
      vertex  1.000000e+000  0.000000e+000  2.679492e-001
    endloop
  endfacet
  facet normal -6.087615e-001  0.000000e+000 -7.933533e-001
    outer loop
      vertex  1.000000e+000  0.000000e+000  2.679492e-001
      vertex  5.857865e-001  3.000000e+000  5.857865e-001
      vertex  1.000000e+000  3.000000e+000  2.679492e-001
    endloop
  endfacet
  facet normal -3.826834e-001  -0.000000e+000 -9.238795e-001
    outer loop
      vertex  1.000000e+000  0.000000e+000  2.679492e-001
      vertex  1.000000e+000  3.000000e+000  2.679492e-001
      vertex  1.482362e+000  0.000000e+000  6.814834e-002
    endloop
  endfacet
  facet normal -3.826834e-001  0.000000e+000 -9.238795e-001
    outer loop
      vertex  1.482362e+000  0.000000e+000  6.814834e-002
      vertex  1.000000e+000  3.000000e+000  2.679492e-001
      vertex  1.482362e+000  3.000000e+000  6.814834e-002
    endloop
  endfacet
  facet normal -1.305262e-001  -0.000000e+000 -9.914448e-001
    outer loop
      vertex  1.482362e+000  0.000000e+000  6.814834e-002
      vertex  1.482362e+000  3.000000e+000  6.814834e-002
      vertex  2.000000e+000  0.000000e+000  0.000000e+000
    endloop
  endfacet
  facet normal -1.305262e-001  0.000000e+000 -9.914448e-001
    outer loop
      vertex  2.000000e+000  0.000000e+000  0.000000e+000
      vertex  1.482362e+000  3.000000e+000  6.814834e-002
      vertex  2.000000e+000  3.000000e+000  0.000000e+000
    endloop
  endfacet
  facet normal  9.999999e-001  0.000000e+000  0.000000e+000
    outer loop
      vertex  8.900000e+001  3.000000e+000  8.000000e-001
      vertex  8.900000e+001  3.000000e+000  5.346410e+000
      vertex  8.900000e+001  0.000000e+000  8.000000e-001
    endloop
  endfacet
  facet normal  9.999999e-001  0.000000e+000  0.000000e+000
    outer loop
      vertex  8.900000e+001  0.000000e+000  8.000000e-001
      vertex  8.900000e+001  3.000000e+000  5.346410e+000
      vertex  8.900000e+001  0.000000e+000  5.346410e+000
    endloop
  endfacet
  facet normal  1.950869e-001  0.000000e+000 -9.807860e-001
    outer loop
      vertex  8.820000e+001  0.000000e+000  0.000000e+000
      vertex  8.820000e+001  3.000000e+000  0.000000e+000
      vertex  8.850615e+001  0.000000e+000  6.089637e-002
    endloop
  endfacet
  facet normal  1.950869e-001  0.000000e+000 -9.807860e-001
    outer loop
      vertex  8.850615e+001  0.000000e+000  6.089637e-002
      vertex  8.820000e+001  3.000000e+000  0.000000e+000
      vertex  8.850615e+001  3.000000e+000  6.089637e-002
    endloop
  endfacet
  facet normal  5.555731e-001  0.000000e+000 -8.314677e-001
    outer loop
      vertex  8.850615e+001  0.000000e+000  6.089637e-002
      vertex  8.850615e+001  3.000000e+000  6.089637e-002
      vertex  8.876569e+001  0.000000e+000  2.343146e-001
    endloop
  endfacet
  facet normal  5.555731e-001  0.000000e+000 -8.314677e-001
    outer loop
      vertex  8.876569e+001  0.000000e+000  2.343146e-001
      vertex  8.850615e+001  3.000000e+000  6.089637e-002
      vertex  8.876569e+001  3.000000e+000  2.343146e-001
    endloop
  endfacet
  facet normal  8.314726e-001  0.000000e+000 -5.555657e-001
    outer loop
      vertex  8.876569e+001  0.000000e+000  2.343146e-001
      vertex  8.876569e+001  3.000000e+000  2.343146e-001
      vertex  8.893910e+001  0.000000e+000  4.938532e-001
    endloop
  endfacet
  facet normal  8.314726e-001  0.000000e+000 -5.555657e-001
    outer loop
      vertex  8.893910e+001  0.000000e+000  4.938532e-001
      vertex  8.876569e+001  3.000000e+000  2.343146e-001
      vertex  8.893910e+001  3.000000e+000  4.938532e-001
    endloop
  endfacet
  facet normal  9.807844e-001  0.000000e+000 -1.950948e-001
    outer loop
      vertex  8.893910e+001  0.000000e+000  4.938532e-001
      vertex  8.893910e+001  3.000000e+000  4.938532e-001
      vertex  8.900000e+001  0.000000e+000  8.000000e-001
    endloop
  endfacet
  facet normal  9.807844e-001  0.000000e+000 -1.950948e-001
    outer loop
      vertex  8.900000e+001  0.000000e+000  8.000000e-001
      vertex  8.893910e+001  3.000000e+000  4.938532e-001
      vertex  8.900000e+001  3.000000e+000  8.000000e-001
    endloop
  endfacet
  facet normal  1.000000e+000  0.000000e+000  0.000000e+000
    outer loop
      vertex  8.900000e+001  3.000000e+000  3.402557e+001
      vertex  8.900000e+001  3.000000e+000  3.816541e+001
      vertex  8.900000e+001  0.000000e+000  3.402557e+001
    endloop
  endfacet
  facet normal  1.000000e+000  0.000000e+000  0.000000e+000
    outer loop
      vertex  8.900000e+001  0.000000e+000  3.402557e+001
      vertex  8.900000e+001  3.000000e+000  3.816541e+001
      vertex  8.900000e+001  0.000000e+000  3.816541e+001
    endloop
  endfacet
  facet normal  9.752775e-001  0.000000e+000  2.209841e-001
    outer loop
      vertex  8.900000e+001  0.000000e+000  3.816541e+001
      vertex  8.900000e+001  3.000000e+000  3.816541e+001
      vertex  8.892187e+001  0.000000e+000  3.851023e+001
    endloop
  endfacet
  facet normal  9.752775e-001  -0.000000e+000  2.209841e-001
    outer loop
      vertex  8.892187e+001  0.000000e+000  3.851023e+001
      vertex  8.900000e+001  3.000000e+000  3.816541e+001
      vertex  8.892187e+001  3.000000e+000  3.851023e+001
    endloop
  endfacet
  facet normal  7.847816e-001  0.000000e+000  6.197723e-001
    outer loop
      vertex  8.892187e+001  0.000000e+000  3.851023e+001
      vertex  8.892187e+001  3.000000e+000  3.851023e+001
      vertex  8.870274e+001  0.000000e+000  3.878771e+001
    endloop
  endfacet
  facet normal  7.847816e-001  -0.000000e+000  6.197723e-001
    outer loop
      vertex  8.870274e+001  0.000000e+000  3.878771e+001
      vertex  8.892187e+001  3.000000e+000  3.851023e+001
      vertex  8.870274e+001  3.000000e+000  3.878771e+001
    endloop
  endfacet
  facet normal  4.409797e-001  0.000000e+000  8.975171e-001
    outer loop
      vertex  8.870274e+001  0.000000e+000  3.878771e+001
      vertex  8.870274e+001  3.000000e+000  3.878771e+001
      vertex  8.838540e+001  0.000000e+000  3.894363e+001
    endloop
  endfacet
  facet normal  4.409797e-001  -0.000000e+000  8.975171e-001
    outer loop
      vertex  8.838540e+001  0.000000e+000  3.894363e+001
      vertex  8.870274e+001  3.000000e+000  3.878771e+001
      vertex  8.838540e+001  3.000000e+000  3.894363e+001
    endloop
  endfacet
  facet normal -4.999993e-001  0.000000e+000 -8.660258e-001
    outer loop
      vertex  8.600000e+001  3.000000e+000  3.437198e+001
      vertex  8.780000e+001  3.000000e+000  3.333275e+001
      vertex  8.600000e+001  0.000000e+000  3.437198e+001
    endloop
  endfacet
  facet normal -4.999993e-001  0.000000e+000 -8.660258e-001
    outer loop
      vertex  8.600000e+001  0.000000e+000  3.437198e+001
      vertex  8.780000e+001  3.000000e+000  3.333275e+001
      vertex  8.780000e+001  0.000000e+000  3.333275e+001
    endloop
  endfacet
  facet normal -3.090114e-001  -0.000000e+000 -9.510583e-001
    outer loop
      vertex  8.780000e+001  0.000000e+000  3.333275e+001
      vertex  8.780000e+001  3.000000e+000  3.333275e+001
      vertex  8.811638e+001  0.000000e+000  3.322995e+001
    endloop
  endfacet
  facet normal -3.090114e-001  0.000000e+000 -9.510583e-001
    outer loop
      vertex  8.811638e+001  0.000000e+000  3.322995e+001
      vertex  8.780000e+001  3.000000e+000  3.333275e+001
      vertex  8.811638e+001  3.000000e+000  3.322995e+001
    endloop
  endfacet
  facet normal  1.045254e-001  0.000000e+000 -9.945222e-001
    outer loop
      vertex  8.811638e+001  0.000000e+000  3.322995e+001
      vertex  8.811638e+001  3.000000e+000  3.322995e+001
      vertex  8.844721e+001  0.000000e+000  3.326472e+001
    endloop
  endfacet
  facet normal  1.045254e-001  0.000000e+000 -9.945222e-001
    outer loop
      vertex  8.844721e+001  0.000000e+000  3.326472e+001
      vertex  8.811638e+001  3.000000e+000  3.322995e+001
      vertex  8.844721e+001  3.000000e+000  3.326472e+001
    endloop
  endfacet
  facet normal  4.999944e-001  0.000000e+000 -8.660286e-001
    outer loop
      vertex  8.844721e+001  0.000000e+000  3.326472e+001
      vertex  8.844721e+001  3.000000e+000  3.326472e+001
      vertex  8.873531e+001  0.000000e+000  3.343105e+001
    endloop
  endfacet
  facet normal  4.999944e-001  0.000000e+000 -8.660286e-001
    outer loop
      vertex  8.873531e+001  0.000000e+000  3.343105e+001
      vertex  8.844721e+001  3.000000e+000  3.326472e+001
      vertex  8.873531e+001  3.000000e+000  3.343105e+001
    endloop
  endfacet
  facet normal  8.090147e-001  0.000000e+000 -5.877884e-001
    outer loop
      vertex  8.873531e+001  0.000000e+000  3.343105e+001
      vertex  8.873531e+001  3.000000e+000  3.343105e+001
      vertex  8.893084e+001  0.000000e+000  3.370018e+001
    endloop
  endfacet
  facet normal  8.090147e-001  0.000000e+000 -5.877884e-001
    outer loop
      vertex  8.893084e+001  0.000000e+000  3.370018e+001
      vertex  8.873531e+001  3.000000e+000  3.343105e+001
      vertex  8.893084e+001  3.000000e+000  3.370018e+001
    endloop
  endfacet
  facet normal  9.781496e-001  0.000000e+000 -2.079022e-001
    outer loop
      vertex  8.893084e+001  0.000000e+000  3.370018e+001
      vertex  8.893084e+001  3.000000e+000  3.370018e+001
      vertex  8.900000e+001  0.000000e+000  3.402557e+001
    endloop
  endfacet
  facet normal  9.781496e-001  0.000000e+000 -2.079022e-001
    outer loop
      vertex  8.900000e+001  0.000000e+000  3.402557e+001
      vertex  8.893084e+001  3.000000e+000  3.370018e+001
      vertex  8.900000e+001  3.000000e+000  3.402557e+001
    endloop
  endfacet
  facet normal -4.999993e-001  0.000000e+000  8.660258e-001
    outer loop
      vertex  8.780000e+001  3.000000e+000  6.039230e+000
      vertex  8.600000e+001  3.000000e+000  5.000000e+000
      vertex  8.780000e+001  0.000000e+000  6.039230e+000
    endloop
  endfacet
  facet normal -4.999993e-001  0.000000e+000  8.660258e-001
    outer loop
      vertex  8.780000e+001  0.000000e+000  6.039230e+000
      vertex  8.600000e+001  3.000000e+000  5.000000e+000
      vertex  8.600000e+001  0.000000e+000  5.000000e+000
    endloop
  endfacet
  facet normal  9.781495e-001  0.000000e+000  2.079025e-001
    outer loop
      vertex  8.900000e+001  0.000000e+000  5.346410e+000
      vertex  8.900000e+001  3.000000e+000  5.346410e+000
      vertex  8.893084e+001  0.000000e+000  5.671800e+000
    endloop
  endfacet
  facet normal  9.781495e-001  -0.000000e+000  2.079025e-001
    outer loop
      vertex  8.893084e+001  0.000000e+000  5.671800e+000
      vertex  8.900000e+001  3.000000e+000  5.346410e+000
      vertex  8.893084e+001  3.000000e+000  5.671800e+000
    endloop
  endfacet
  facet normal  8.090142e-001  0.000000e+000  5.877891e-001
    outer loop
      vertex  8.893084e+001  0.000000e+000  5.671800e+000
      vertex  8.893084e+001  3.000000e+000  5.671800e+000
      vertex  8.873531e+001  0.000000e+000  5.940926e+000
    endloop
  endfacet
  facet normal  8.090142e-001  -0.000000e+000  5.877891e-001
    outer loop
      vertex  8.873531e+001  0.000000e+000  5.940926e+000
      vertex  8.893084e+001  3.000000e+000  5.671800e+000
      vertex  8.873531e+001  3.000000e+000  5.940926e+000
    endloop
  endfacet
  facet normal  4.999966e-001  0.000000e+000  8.660274e-001
    outer loop
      vertex  8.873531e+001  0.000000e+000  5.940926e+000
      vertex  8.873531e+001  3.000000e+000  5.940926e+000
      vertex  8.844721e+001  0.000000e+000  6.107255e+000
    endloop
  endfacet
  facet normal  4.999966e-001  -0.000000e+000  8.660274e-001
    outer loop
      vertex  8.844721e+001  0.000000e+000  6.107255e+000
      vertex  8.873531e+001  3.000000e+000  5.940926e+000
      vertex  8.844721e+001  3.000000e+000  6.107255e+000
    endloop
  endfacet
  facet normal  1.045296e-001  0.000000e+000  9.945217e-001
    outer loop
      vertex  8.844721e+001  0.000000e+000  6.107255e+000
      vertex  8.844721e+001  3.000000e+000  6.107255e+000
      vertex  8.811638e+001  0.000000e+000  6.142028e+000
    endloop
  endfacet
  facet normal  1.045296e-001  -0.000000e+000  9.945217e-001
    outer loop
      vertex  8.811638e+001  0.000000e+000  6.142028e+000
      vertex  8.844721e+001  3.000000e+000  6.107255e+000
      vertex  8.811638e+001  3.000000e+000  6.142028e+000
    endloop
  endfacet
  facet normal -3.090192e-001  0.000000e+000  9.510559e-001
    outer loop
      vertex  8.811638e+001  0.000000e+000  6.142028e+000
      vertex  8.811638e+001  3.000000e+000  6.142028e+000
      vertex  8.780000e+001  0.000000e+000  6.039230e+000
    endloop
  endfacet
  facet normal -3.090192e-001  0.000000e+000  9.510559e-001
    outer loop
      vertex  8.780000e+001  0.000000e+000  6.039230e+000
      vertex  8.811638e+001  3.000000e+000  6.142028e+000
      vertex  8.780000e+001  3.000000e+000  6.039230e+000
    endloop
  endfacet
  facet normal  1.000000e+000  0.000000e+000  0.000000e+000
    outer loop
      vertex  8.600000e+001  3.000000e+000  5.000000e+000
      vertex  8.600000e+001  3.000000e+000  3.437198e+001
      vertex  8.600000e+001  0.000000e+000  5.000000e+000
    endloop
  endfacet
  facet normal  1.000000e+000  0.000000e+000  0.000000e+000
    outer loop
      vertex  8.600000e+001  0.000000e+000  5.000000e+000
      vertex  8.600000e+001  3.000000e+000  3.437198e+001
      vertex  8.600000e+001  0.000000e+000  3.437198e+001
    endloop
  endfacet
  facet normal  -0.000000e+000  0.000000e+000  1.000000e+000
    outer loop
      vertex  6.460000e+001  3.000000e+000  3.899128e+001
      vertex  6.140000e+001  3.000000e+000  3.899128e+001
      vertex  6.460000e+001  0.000000e+000  3.899128e+001
    endloop
  endfacet
  facet normal  0.000000e+000  0.000000e+000  1.000000e+000
    outer loop
      vertex  6.460000e+001  0.000000e+000  3.899128e+001
      vertex  6.140000e+001  3.000000e+000  3.899128e+001
      vertex  6.140000e+001  0.000000e+000  3.899128e+001
    endloop
  endfacet
endsolid CATIA STL
