solid CATIA STL
  facet normal  0.000000e+000  1.000000e+000  0.000000e+000
    outer loop
      vertex  2.209813e+002  3.000000e+000  6.962991e+000
      vertex  2.179813e+002  3.000000e+000  6.616581e+000
      vertex  2.179813e+002  3.000000e+000  1.879625e+001
    endloop
  endfacet
  facet normal  0.000000e+000  1.000000e+000  0.000000e+000
    outer loop
      vertex  2.209813e+002  3.000000e+000  6.962991e+000
      vertex  2.179813e+002  3.000000e+000  1.879625e+001
      vertex  2.209813e+002  3.000000e+000  1.844984e+001
    endloop
  endfacet
  facet normal  0.000000e+000  9.999999e-001  0.000000e+000
    outer loop
      vertex  2.209813e+002  3.000000e+000  6.962991e+000
      vertex  2.209813e+002  3.000000e+000  1.844984e+001
      vertex  2.646500e+002  3.000000e+000  1.637540e+001
    endloop
  endfacet
  facet normal  0.000000e+000  1.000000e+000  0.000000e+000
    outer loop
      vertex  2.209813e+002  3.000000e+000  6.962991e+000
      vertex  2.646500e+002  3.000000e+000  1.637540e+001
      vertex  2.646500e+002  3.000000e+000  1.183014e+001
    endloop
  endfacet
  facet normal  0.000000e+000  1.000000e+000  0.000000e+000
    outer loop
      vertex  2.629629e+002  3.000000e+000  1.835077e+001
      vertex  2.646500e+002  3.000000e+000  1.637540e+001
      vertex  2.209813e+002  3.000000e+000  1.844984e+001
    endloop
  endfacet
  facet normal  -0.000000e+000  1.000000e+000  0.000000e+000
    outer loop
      vertex  2.629629e+002  3.000000e+000  1.835077e+001
      vertex  2.209813e+002  3.000000e+000  1.844984e+001
      vertex  2.209813e+002  3.000000e+000  2.406332e+001
    endloop
  endfacet
  facet normal  -0.000000e+000  1.000000e+000  0.000000e+000
    outer loop
      vertex  2.629629e+002  3.000000e+000  1.835077e+001
      vertex  2.209813e+002  3.000000e+000  2.406332e+001
      vertex  2.210548e+002  3.000000e+000  2.439825e+001
    endloop
  endfacet
  facet normal  -0.000000e+000  1.000000e+000  0.000000e+000
    outer loop
      vertex  2.629629e+002  3.000000e+000  1.835077e+001
      vertex  2.210548e+002  3.000000e+000  2.439825e+001
      vertex  2.212617e+002  3.000000e+000  2.467164e+001
    endloop
  endfacet
  facet normal  -0.000000e+000  1.000000e+000  0.000000e+000
    outer loop
      vertex  2.629629e+002  3.000000e+000  1.835077e+001
      vertex  2.212617e+002  3.000000e+000  2.467164e+001
      vertex  2.215641e+002  3.000000e+000  2.483328e+001
    endloop
  endfacet
  facet normal  -0.000000e+000  1.000000e+000  0.000000e+000
    outer loop
      vertex  2.629629e+002  3.000000e+000  1.835077e+001
      vertex  2.215641e+002  3.000000e+000  2.483328e+001
      vertex  2.219064e+002  3.000000e+000  2.485347e+001
    endloop
  endfacet
  facet normal  0.000000e+000  1.000000e+000  0.000000e+000
    outer loop
      vertex  2.646500e+002  3.000000e+000  1.637540e+001
      vertex  2.629629e+002  3.000000e+000  1.835077e+001
      vertex  2.635016e+002  3.000000e+000  1.818505e+001
    endloop
  endfacet
  facet normal  0.000000e+000  1.000000e+000  0.000000e+000
    outer loop
      vertex  2.646500e+002  3.000000e+000  1.637540e+001
      vertex  2.635016e+002  3.000000e+000  1.818505e+001
      vertex  2.639726e+002  3.000000e+000  1.787562e+001
    endloop
  endfacet
  facet normal  0.000000e+000  1.000000e+000  0.000000e+000
    outer loop
      vertex  2.646500e+002  3.000000e+000  1.637540e+001
      vertex  2.639726e+002  3.000000e+000  1.787562e+001
      vertex  2.643387e+002  3.000000e+000  1.744705e+001
    endloop
  endfacet
  facet normal  0.000000e+000  1.000000e+000  0.000000e+000
    outer loop
      vertex  2.646500e+002  3.000000e+000  1.637540e+001
      vertex  2.643387e+002  3.000000e+000  1.744705e+001
      vertex  2.645706e+002  3.000000e+000  1.693338e+001
    endloop
  endfacet
  facet normal  0.000000e+000  1.000000e+000  0.000000e+000
    outer loop
      vertex  3.537256e+002  3.000000e+000  3.975377e+000
      vertex  2.209813e+002  3.000000e+000  8.000000e-001
      vertex  2.209813e+002  3.000000e+000  6.962991e+000
    endloop
  endfacet
  facet normal  -0.000000e+000  1.000000e+000  0.000000e+000
    outer loop
      vertex  3.537256e+002  3.000000e+000  3.975377e+000
      vertex  2.209813e+002  3.000000e+000  6.962991e+000
      vertex  2.646500e+002  3.000000e+000  1.183014e+001
    endloop
  endfacet
  facet normal  -0.000000e+000  1.000000e+000  0.000000e+000
    outer loop
      vertex  3.537256e+002  3.000000e+000  3.975377e+000
      vertex  2.646500e+002  3.000000e+000  1.183014e+001
      vertex  2.678500e+002  3.000000e+000  1.183014e+001
    endloop
  endfacet
  facet normal  -0.000000e+000  1.000000e+000  0.000000e+000
    outer loop
      vertex  3.537256e+002  3.000000e+000  3.975377e+000
      vertex  2.678500e+002  3.000000e+000  1.183014e+001
      vertex  2.678500e+002  3.000000e+000  1.523503e+001
    endloop
  endfacet
  facet normal  -0.000000e+000  9.999999e-001  0.000000e+000
    outer loop
      vertex  3.537256e+002  3.000000e+000  3.975377e+000
      vertex  2.678500e+002  3.000000e+000  1.523503e+001
      vertex  2.679106e+002  3.000000e+000  1.572371e+001
    endloop
  endfacet
  facet normal  -0.000000e+000  1.000000e+000  0.000000e+000
    outer loop
      vertex  3.537256e+002  3.000000e+000  3.975377e+000
      vertex  2.679106e+002  3.000000e+000  1.572371e+001
      vertex  2.680888e+002  3.000000e+000  1.618277e+001
    endloop
  endfacet
  facet normal  -0.000000e+000  1.000000e+000  0.000000e+000
    outer loop
      vertex  3.537256e+002  3.000000e+000  3.975377e+000
      vertex  2.680888e+002  3.000000e+000  1.618277e+001
      vertex  2.683737e+002  3.000000e+000  1.658437e+001
    endloop
  endfacet
  facet normal  -0.000000e+000  1.000000e+000  0.000000e+000
    outer loop
      vertex  3.537256e+002  3.000000e+000  3.975377e+000
      vertex  2.683737e+002  3.000000e+000  1.658437e+001
      vertex  2.687482e+002  3.000000e+000  1.690417e+001
    endloop
  endfacet
  facet normal  -0.000000e+000  1.000000e+000  0.000000e+000
    outer loop
      vertex  3.537256e+002  3.000000e+000  3.975377e+000
      vertex  2.687482e+002  3.000000e+000  1.690417e+001
      vertex  2.691895e+002  3.000000e+000  1.712280e+001
    endloop
  endfacet
  facet normal  -0.000000e+000  1.000000e+000  0.000000e+000
    outer loop
      vertex  3.537256e+002  3.000000e+000  3.975377e+000
      vertex  2.691895e+002  3.000000e+000  1.712280e+001
      vertex  2.696707e+002  3.000000e+000  1.722698e+001
    endloop
  endfacet
  facet normal  0.000000e+000  1.000000e+000  0.000000e+000
    outer loop
      vertex  3.537256e+002  3.000000e+000  3.975377e+000
      vertex  2.696707e+002  3.000000e+000  1.722698e+001
      vertex  2.701629e+002  3.000000e+000  1.721041e+001
    endloop
  endfacet
  facet normal  0.000000e+000  1.000000e+000  0.000000e+000
    outer loop
      vertex  2.209813e+002  3.000000e+000  8.000000e-001
      vertex  3.537256e+002  3.000000e+000  3.975377e+000
      vertex  3.542435e+002  3.000000e+000  3.819264e+000
    endloop
  endfacet
  facet normal  0.000000e+000  1.000000e+000  0.000000e+000
    outer loop
      vertex  2.209813e+002  3.000000e+000  8.000000e-001
      vertex  3.542435e+002  3.000000e+000  3.819264e+000
      vertex  3.547007e+002  3.000000e+000  3.530047e+000
    endloop
  endfacet
  facet normal  0.000000e+000  1.000000e+000  0.000000e+000
    outer loop
      vertex  2.209813e+002  3.000000e+000  8.000000e-001
      vertex  3.547007e+002  3.000000e+000  3.530047e+000
      vertex  3.550636e+002  3.000000e+000  3.128886e+000
    endloop
  endfacet
  facet normal  0.000000e+000  1.000000e+000  0.000000e+000
    outer loop
      vertex  2.209813e+002  3.000000e+000  8.000000e-001
      vertex  3.550636e+002  3.000000e+000  3.128886e+000
      vertex  3.553058e+002  3.000000e+000  2.645132e+000
    endloop
  endfacet
  facet normal  0.000000e+000  1.000000e+000  0.000000e+000
    outer loop
      vertex  2.209813e+002  3.000000e+000  8.000000e-001
      vertex  3.553058e+002  3.000000e+000  2.645132e+000
      vertex  3.554094e+002  3.000000e+000  2.114178e+000
    endloop
  endfacet
  facet normal  0.000000e+000  1.000000e+000  0.000000e+000
    outer loop
      vertex  2.209813e+002  3.000000e+000  8.000000e-001
      vertex  3.554094e+002  3.000000e+000  2.114178e+000
      vertex  3.553670e+002  3.000000e+000  1.574869e+000
    endloop
  endfacet
  facet normal  0.000000e+000  1.000000e+000  0.000000e+000
    outer loop
      vertex  2.209813e+002  3.000000e+000  8.000000e-001
      vertex  3.553670e+002  3.000000e+000  1.574869e+000
      vertex  3.551815e+002  3.000000e+000  1.066665e+000
    endloop
  endfacet
  facet normal  0.000000e+000  1.000000e+000  0.000000e+000
    outer loop
      vertex  2.209813e+002  3.000000e+000  8.000000e-001
      vertex  3.551815e+002  3.000000e+000  1.066665e+000
      vertex  3.548667e+002  3.000000e+000  6.267475e-001
    endloop
  endfacet
  facet normal  0.000000e+000  1.000000e+000  0.000000e+000
    outer loop
      vertex  2.209813e+002  3.000000e+000  8.000000e-001
      vertex  3.548667e+002  3.000000e+000  6.267475e-001
      vertex  2.210422e+002  3.000000e+000  4.938532e-001
    endloop
  endfacet
  facet normal  0.000000e+000  1.000000e+000  -0.000000e+000
    outer loop
      vertex  2.191813e+002  3.000000e+000  5.923760e+000
      vertex  2.188649e+002  3.000000e+000  5.820963e+000
      vertex  2.185341e+002  3.000000e+000  5.855736e+000
    endloop
  endfacet
  facet normal  0.000000e+000  1.000000e+000  -0.000000e+000
    outer loop
      vertex  2.191813e+002  3.000000e+000  5.923760e+000
      vertex  2.185341e+002  3.000000e+000  5.855736e+000
      vertex  2.182460e+002  3.000000e+000  6.022065e+000
    endloop
  endfacet
  facet normal  -0.000000e+000  1.000000e+000  -0.000000e+000
    outer loop
      vertex  2.191813e+002  3.000000e+000  5.923760e+000
      vertex  2.182460e+002  3.000000e+000  6.022065e+000
      vertex  2.180505e+002  3.000000e+000  6.291192e+000
    endloop
  endfacet
  facet normal  -0.000000e+000  1.000000e+000  -0.000000e+000
    outer loop
      vertex  2.191813e+002  3.000000e+000  5.923760e+000
      vertex  2.180505e+002  3.000000e+000  6.291192e+000
      vertex  2.179813e+002  3.000000e+000  6.616581e+000
    endloop
  endfacet
  facet normal  -0.000000e+000  1.000000e+000  0.000000e+000
    outer loop
      vertex  2.191813e+002  3.000000e+000  5.923760e+000
      vertex  2.179813e+002  3.000000e+000  6.616581e+000
      vertex  2.209813e+002  3.000000e+000  6.962991e+000
    endloop
  endfacet
  facet normal  0.000000e+000  1.000000e+000  0.000000e+000
    outer loop
      vertex  2.185341e+002  3.000000e+000  1.955709e+001
      vertex  2.188649e+002  3.000000e+000  1.959186e+001
      vertex  2.182460e+002  3.000000e+000  1.939076e+001
    endloop
  endfacet
  facet normal  0.000000e+000  1.000000e+000  0.000000e+000
    outer loop
      vertex  2.182460e+002  3.000000e+000  1.939076e+001
      vertex  2.188649e+002  3.000000e+000  1.959186e+001
      vertex  2.191813e+002  3.000000e+000  1.948907e+001
    endloop
  endfacet
  facet normal  0.000000e+000  9.999999e-001  0.000000e+000
    outer loop
      vertex  2.182460e+002  3.000000e+000  1.939076e+001
      vertex  2.191813e+002  3.000000e+000  1.948907e+001
      vertex  2.180505e+002  3.000000e+000  1.912164e+001
    endloop
  endfacet
  facet normal  -0.000000e+000  9.999999e-001  0.000000e+000
    outer loop
      vertex  2.180505e+002  3.000000e+000  1.912164e+001
      vertex  2.191813e+002  3.000000e+000  1.948907e+001
      vertex  2.209813e+002  3.000000e+000  1.844984e+001
    endloop
  endfacet
  facet normal  0.000000e+000  1.000000e+000  0.000000e+000
    outer loop
      vertex  2.180505e+002  3.000000e+000  1.912164e+001
      vertex  2.209813e+002  3.000000e+000  1.844984e+001
      vertex  2.179813e+002  3.000000e+000  1.879625e+001
    endloop
  endfacet
  facet normal  0.000000e+000  1.000000e+000  0.000000e+000
    outer loop
      vertex  2.210422e+002  3.000000e+000  4.938532e-001
      vertex  3.548667e+002  3.000000e+000  6.267475e-001
      vertex  2.212156e+002  3.000000e+000  2.343146e-001
    endloop
  endfacet
  facet normal  0.000000e+000  1.000000e+000  0.000000e+000
    outer loop
      vertex  2.212156e+002  3.000000e+000  2.343146e-001
      vertex  3.548667e+002  3.000000e+000  6.267475e-001
      vertex  3.544455e+002  3.000000e+000  2.873019e-001
    endloop
  endfacet
  facet normal  0.000000e+000  1.000000e+000  0.000000e+000
    outer loop
      vertex  2.212156e+002  3.000000e+000  2.343146e-001
      vertex  3.544455e+002  3.000000e+000  2.873019e-001
      vertex  2.214752e+002  3.000000e+000  6.089637e-002
    endloop
  endfacet
  facet normal  0.000000e+000  1.000000e+000  0.000000e+000
    outer loop
      vertex  2.214752e+002  3.000000e+000  6.089637e-002
      vertex  3.544455e+002  3.000000e+000  2.873019e-001
      vertex  3.539487e+002  3.000000e+000  7.316372e-002
    endloop
  endfacet
  facet normal  0.000000e+000  1.000000e+000  0.000000e+000
    outer loop
      vertex  2.214752e+002  3.000000e+000  6.089637e-002
      vertex  3.539487e+002  3.000000e+000  7.316372e-002
      vertex  2.217813e+002  3.000000e+000  0.000000e+000
    endloop
  endfacet
  facet normal  0.000000e+000  1.000000e+000  0.000000e+000
    outer loop
      vertex  2.217813e+002  3.000000e+000  0.000000e+000
      vertex  3.539487e+002  3.000000e+000  7.316372e-002
      vertex  3.534127e+002  3.000000e+000  0.000000e+000
    endloop
  endfacet
  facet normal  -0.000000e+000 -1.000000e+000  0.000000e+000
    outer loop
      vertex  2.209813e+002  0.000000e+000  6.962991e+000
      vertex  2.646500e+002  0.000000e+000  1.183014e+001
      vertex  2.646500e+002  0.000000e+000  1.637540e+001
    endloop
  endfacet
  facet normal  -0.000000e+000 -9.999999e-001  0.000000e+000
    outer loop
      vertex  2.209813e+002  0.000000e+000  6.962991e+000
      vertex  2.646500e+002  0.000000e+000  1.637540e+001
      vertex  2.209813e+002  0.000000e+000  1.844984e+001
    endloop
  endfacet
  facet normal  -0.000000e+000 -1.000000e+000  -0.000000e+000
    outer loop
      vertex  2.209813e+002  0.000000e+000  6.962991e+000
      vertex  2.209813e+002  0.000000e+000  1.844984e+001
      vertex  2.179813e+002  0.000000e+000  1.879625e+001
    endloop
  endfacet
  facet normal  0.000000e+000 -1.000000e+000  0.000000e+000
    outer loop
      vertex  2.209813e+002  0.000000e+000  6.962991e+000
      vertex  2.179813e+002  0.000000e+000  1.879625e+001
      vertex  2.179813e+002  0.000000e+000  6.616581e+000
    endloop
  endfacet
  facet normal  0.000000e+000 -1.000000e+000  -0.000000e+000
    outer loop
      vertex  2.629629e+002  0.000000e+000  1.835077e+001
      vertex  2.219064e+002  0.000000e+000  2.485347e+001
      vertex  2.215641e+002  0.000000e+000  2.483328e+001
    endloop
  endfacet
  facet normal  0.000000e+000 -1.000000e+000  -0.000000e+000
    outer loop
      vertex  2.629629e+002  0.000000e+000  1.835077e+001
      vertex  2.215641e+002  0.000000e+000  2.483328e+001
      vertex  2.212617e+002  0.000000e+000  2.467164e+001
    endloop
  endfacet
  facet normal  0.000000e+000 -1.000000e+000  -0.000000e+000
    outer loop
      vertex  2.629629e+002  0.000000e+000  1.835077e+001
      vertex  2.212617e+002  0.000000e+000  2.467164e+001
      vertex  2.210548e+002  0.000000e+000  2.439825e+001
    endloop
  endfacet
  facet normal  0.000000e+000 -1.000000e+000  -0.000000e+000
    outer loop
      vertex  2.629629e+002  0.000000e+000  1.835077e+001
      vertex  2.210548e+002  0.000000e+000  2.439825e+001
      vertex  2.209813e+002  0.000000e+000  2.406332e+001
    endloop
  endfacet
  facet normal  0.000000e+000 -1.000000e+000  0.000000e+000
    outer loop
      vertex  2.629629e+002  0.000000e+000  1.835077e+001
      vertex  2.209813e+002  0.000000e+000  2.406332e+001
      vertex  2.209813e+002  0.000000e+000  1.844984e+001
    endloop
  endfacet
  facet normal  0.000000e+000 -1.000000e+000  0.000000e+000
    outer loop
      vertex  2.629629e+002  0.000000e+000  1.835077e+001
      vertex  2.209813e+002  0.000000e+000  1.844984e+001
      vertex  2.646500e+002  0.000000e+000  1.637540e+001
    endloop
  endfacet
  facet normal  -0.000000e+000 -1.000000e+000  -0.000000e+000
    outer loop
      vertex  2.646500e+002  0.000000e+000  1.637540e+001
      vertex  2.645706e+002  0.000000e+000  1.693338e+001
      vertex  2.643387e+002  0.000000e+000  1.744705e+001
    endloop
  endfacet
  facet normal  -0.000000e+000 -1.000000e+000  -0.000000e+000
    outer loop
      vertex  2.646500e+002  0.000000e+000  1.637540e+001
      vertex  2.643387e+002  0.000000e+000  1.744705e+001
      vertex  2.639726e+002  0.000000e+000  1.787562e+001
    endloop
  endfacet
  facet normal  -0.000000e+000 -1.000000e+000  -0.000000e+000
    outer loop
      vertex  2.646500e+002  0.000000e+000  1.637540e+001
      vertex  2.639726e+002  0.000000e+000  1.787562e+001
      vertex  2.635016e+002  0.000000e+000  1.818505e+001
    endloop
  endfacet
  facet normal  -0.000000e+000 -1.000000e+000  -0.000000e+000
    outer loop
      vertex  2.646500e+002  0.000000e+000  1.637540e+001
      vertex  2.635016e+002  0.000000e+000  1.818505e+001
      vertex  2.629629e+002  0.000000e+000  1.835077e+001
    endloop
  endfacet
  facet normal  -0.000000e+000 -1.000000e+000  -0.000000e+000
    outer loop
      vertex  3.537256e+002  0.000000e+000  3.975377e+000
      vertex  2.701629e+002  0.000000e+000  1.721041e+001
      vertex  2.696707e+002  0.000000e+000  1.722698e+001
    endloop
  endfacet
  facet normal  0.000000e+000 -1.000000e+000  -0.000000e+000
    outer loop
      vertex  3.537256e+002  0.000000e+000  3.975377e+000
      vertex  2.696707e+002  0.000000e+000  1.722698e+001
      vertex  2.691895e+002  0.000000e+000  1.712280e+001
    endloop
  endfacet
  facet normal  0.000000e+000 -1.000000e+000  -0.000000e+000
    outer loop
      vertex  3.537256e+002  0.000000e+000  3.975377e+000
      vertex  2.691895e+002  0.000000e+000  1.712280e+001
      vertex  2.687482e+002  0.000000e+000  1.690417e+001
    endloop
  endfacet
  facet normal  0.000000e+000 -1.000000e+000  -0.000000e+000
    outer loop
      vertex  3.537256e+002  0.000000e+000  3.975377e+000
      vertex  2.687482e+002  0.000000e+000  1.690417e+001
      vertex  2.683737e+002  0.000000e+000  1.658437e+001
    endloop
  endfacet
  facet normal  0.000000e+000 -1.000000e+000  -0.000000e+000
    outer loop
      vertex  3.537256e+002  0.000000e+000  3.975377e+000
      vertex  2.683737e+002  0.000000e+000  1.658437e+001
      vertex  2.680888e+002  0.000000e+000  1.618277e+001
    endloop
  endfacet
  facet normal  0.000000e+000 -1.000000e+000  -0.000000e+000
    outer loop
      vertex  3.537256e+002  0.000000e+000  3.975377e+000
      vertex  2.680888e+002  0.000000e+000  1.618277e+001
      vertex  2.679106e+002  0.000000e+000  1.572371e+001
    endloop
  endfacet
  facet normal  0.000000e+000 -9.999999e-001  -0.000000e+000
    outer loop
      vertex  3.537256e+002  0.000000e+000  3.975377e+000
      vertex  2.679106e+002  0.000000e+000  1.572371e+001
      vertex  2.678500e+002  0.000000e+000  1.523503e+001
    endloop
  endfacet
  facet normal  0.000000e+000 -1.000000e+000  0.000000e+000
    outer loop
      vertex  3.537256e+002  0.000000e+000  3.975377e+000
      vertex  2.678500e+002  0.000000e+000  1.523503e+001
      vertex  2.678500e+002  0.000000e+000  1.183014e+001
    endloop
  endfacet
  facet normal  -0.000000e+000 -1.000000e+000  -0.000000e+000
    outer loop
      vertex  3.537256e+002  0.000000e+000  3.975377e+000
      vertex  2.678500e+002  0.000000e+000  1.183014e+001
      vertex  2.646500e+002  0.000000e+000  1.183014e+001
    endloop
  endfacet
  facet normal  0.000000e+000 -1.000000e+000  -0.000000e+000
    outer loop
      vertex  3.537256e+002  0.000000e+000  3.975377e+000
      vertex  2.646500e+002  0.000000e+000  1.183014e+001
      vertex  2.209813e+002  0.000000e+000  6.962991e+000
    endloop
  endfacet
  facet normal  0.000000e+000 -1.000000e+000  0.000000e+000
    outer loop
      vertex  3.537256e+002  0.000000e+000  3.975377e+000
      vertex  2.209813e+002  0.000000e+000  6.962991e+000
      vertex  2.209813e+002  0.000000e+000  8.000000e-001
    endloop
  endfacet
  facet normal  0.000000e+000 -1.000000e+000  0.000000e+000
    outer loop
      vertex  2.209813e+002  0.000000e+000  8.000000e-001
      vertex  2.210422e+002  0.000000e+000  4.938532e-001
      vertex  3.548667e+002  0.000000e+000  6.267475e-001
    endloop
  endfacet
  facet normal  0.000000e+000 -1.000000e+000  0.000000e+000
    outer loop
      vertex  2.209813e+002  0.000000e+000  8.000000e-001
      vertex  3.548667e+002  0.000000e+000  6.267475e-001
      vertex  3.551815e+002  0.000000e+000  1.066665e+000
    endloop
  endfacet
  facet normal  -0.000000e+000 -1.000000e+000  0.000000e+000
    outer loop
      vertex  2.209813e+002  0.000000e+000  8.000000e-001
      vertex  3.551815e+002  0.000000e+000  1.066665e+000
      vertex  3.553670e+002  0.000000e+000  1.574869e+000
    endloop
  endfacet
  facet normal  -0.000000e+000 -1.000000e+000  0.000000e+000
    outer loop
      vertex  2.209813e+002  0.000000e+000  8.000000e-001
      vertex  3.553670e+002  0.000000e+000  1.574869e+000
      vertex  3.554094e+002  0.000000e+000  2.114178e+000
    endloop
  endfacet
  facet normal  -0.000000e+000 -1.000000e+000  0.000000e+000
    outer loop
      vertex  2.209813e+002  0.000000e+000  8.000000e-001
      vertex  3.554094e+002  0.000000e+000  2.114178e+000
      vertex  3.553058e+002  0.000000e+000  2.645132e+000
    endloop
  endfacet
  facet normal  -0.000000e+000 -1.000000e+000  0.000000e+000
    outer loop
      vertex  2.209813e+002  0.000000e+000  8.000000e-001
      vertex  3.553058e+002  0.000000e+000  2.645132e+000
      vertex  3.550636e+002  0.000000e+000  3.128886e+000
    endloop
  endfacet
  facet normal  -0.000000e+000 -1.000000e+000  0.000000e+000
    outer loop
      vertex  2.209813e+002  0.000000e+000  8.000000e-001
      vertex  3.550636e+002  0.000000e+000  3.128886e+000
      vertex  3.547007e+002  0.000000e+000  3.530047e+000
    endloop
  endfacet
  facet normal  -0.000000e+000 -1.000000e+000  0.000000e+000
    outer loop
      vertex  2.209813e+002  0.000000e+000  8.000000e-001
      vertex  3.547007e+002  0.000000e+000  3.530047e+000
      vertex  3.542435e+002  0.000000e+000  3.819264e+000
    endloop
  endfacet
  facet normal  -0.000000e+000 -1.000000e+000  0.000000e+000
    outer loop
      vertex  2.209813e+002  0.000000e+000  8.000000e-001
      vertex  3.542435e+002  0.000000e+000  3.819264e+000
      vertex  3.537256e+002  0.000000e+000  3.975377e+000
    endloop
  endfacet
  facet normal  0.000000e+000 -1.000000e+000  0.000000e+000
    outer loop
      vertex  2.191813e+002  0.000000e+000  5.923760e+000
      vertex  2.209813e+002  0.000000e+000  6.962991e+000
      vertex  2.179813e+002  0.000000e+000  6.616581e+000
    endloop
  endfacet
  facet normal  0.000000e+000 -1.000000e+000  0.000000e+000
    outer loop
      vertex  2.191813e+002  0.000000e+000  5.923760e+000
      vertex  2.179813e+002  0.000000e+000  6.616581e+000
      vertex  2.180505e+002  0.000000e+000  6.291192e+000
    endloop
  endfacet
  facet normal  0.000000e+000 -1.000000e+000  0.000000e+000
    outer loop
      vertex  2.191813e+002  0.000000e+000  5.923760e+000
      vertex  2.180505e+002  0.000000e+000  6.291192e+000
      vertex  2.182460e+002  0.000000e+000  6.022065e+000
    endloop
  endfacet
  facet normal  0.000000e+000 -1.000000e+000  0.000000e+000
    outer loop
      vertex  2.191813e+002  0.000000e+000  5.923760e+000
      vertex  2.182460e+002  0.000000e+000  6.022065e+000
      vertex  2.185341e+002  0.000000e+000  5.855736e+000
    endloop
  endfacet
  facet normal  0.000000e+000 -1.000000e+000  0.000000e+000
    outer loop
      vertex  2.191813e+002  0.000000e+000  5.923760e+000
      vertex  2.185341e+002  0.000000e+000  5.855736e+000
      vertex  2.188649e+002  0.000000e+000  5.820963e+000
    endloop
  endfacet
  facet normal  0.000000e+000 -1.000000e+000  0.000000e+000
    outer loop
      vertex  2.179813e+002  0.000000e+000  1.879625e+001
      vertex  2.209813e+002  0.000000e+000  1.844984e+001
      vertex  2.180505e+002  0.000000e+000  1.912164e+001
    endloop
  endfacet
  facet normal  0.000000e+000 -9.999999e-001  0.000000e+000
    outer loop
      vertex  2.180505e+002  0.000000e+000  1.912164e+001
      vertex  2.209813e+002  0.000000e+000  1.844984e+001
      vertex  2.191813e+002  0.000000e+000  1.948907e+001
    endloop
  endfacet
  facet normal  0.000000e+000 -9.999999e-001  0.000000e+000
    outer loop
      vertex  2.180505e+002  0.000000e+000  1.912164e+001
      vertex  2.191813e+002  0.000000e+000  1.948907e+001
      vertex  2.182460e+002  0.000000e+000  1.939076e+001
    endloop
  endfacet
  facet normal  0.000000e+000 -1.000000e+000  0.000000e+000
    outer loop
      vertex  2.182460e+002  0.000000e+000  1.939076e+001
      vertex  2.191813e+002  0.000000e+000  1.948907e+001
      vertex  2.188649e+002  0.000000e+000  1.959186e+001
    endloop
  endfacet
  facet normal  0.000000e+000 -1.000000e+000  0.000000e+000
    outer loop
      vertex  2.182460e+002  0.000000e+000  1.939076e+001
      vertex  2.188649e+002  0.000000e+000  1.959186e+001
      vertex  2.185341e+002  0.000000e+000  1.955709e+001
    endloop
  endfacet
  facet normal  0.000000e+000 -1.000000e+000  0.000000e+000
    outer loop
      vertex  2.212156e+002  0.000000e+000  2.343146e-001
      vertex  3.548667e+002  0.000000e+000  6.267475e-001
      vertex  2.210422e+002  0.000000e+000  4.938532e-001
    endloop
  endfacet
  facet normal  0.000000e+000 -1.000000e+000  0.000000e+000
    outer loop
      vertex  3.548667e+002  0.000000e+000  6.267475e-001
      vertex  2.212156e+002  0.000000e+000  2.343146e-001
      vertex  3.544455e+002  0.000000e+000  2.873019e-001
    endloop
  endfacet
  facet normal  0.000000e+000 -1.000000e+000  0.000000e+000
    outer loop
      vertex  3.544455e+002  0.000000e+000  2.873019e-001
      vertex  2.212156e+002  0.000000e+000  2.343146e-001
      vertex  2.214752e+002  0.000000e+000  6.089637e-002
    endloop
  endfacet
  facet normal  0.000000e+000 -1.000000e+000  0.000000e+000
    outer loop
      vertex  3.544455e+002  0.000000e+000  2.873019e-001
      vertex  2.214752e+002  0.000000e+000  6.089637e-002
      vertex  3.539487e+002  0.000000e+000  7.316372e-002
    endloop
  endfacet
  facet normal  0.000000e+000 -1.000000e+000  0.000000e+000
    outer loop
      vertex  3.539487e+002  0.000000e+000  7.316372e-002
      vertex  2.214752e+002  0.000000e+000  6.089637e-002
      vertex  2.217813e+002  0.000000e+000  0.000000e+000
    endloop
  endfacet
  facet normal  0.000000e+000 -1.000000e+000  0.000000e+000
    outer loop
      vertex  3.539487e+002  0.000000e+000  7.316372e-002
      vertex  2.217813e+002  0.000000e+000  0.000000e+000
      vertex  3.534127e+002  0.000000e+000  0.000000e+000
    endloop
  endfacet
  facet normal  1.564345e-001  -0.000000e+000  9.876883e-001
    outer loop
      vertex  2.701629e+002  3.000000e+000  1.721041e+001
      vertex  2.701629e+002  0.000000e+000  1.721041e+001
      vertex  3.537256e+002  3.000000e+000  3.975377e+000
    endloop
  endfacet
  facet normal  1.564345e-001  0.000000e+000  9.876883e-001
    outer loop
      vertex  3.537256e+002  3.000000e+000  3.975377e+000
      vertex  2.701629e+002  0.000000e+000  1.721041e+001
      vertex  3.537256e+002  0.000000e+000  3.975377e+000
    endloop
  endfacet
  facet normal -1.000000e+000  0.000000e+000  0.000000e+000
    outer loop
      vertex  2.678500e+002  3.000000e+000  1.183014e+001
      vertex  2.678500e+002  0.000000e+000  1.183014e+001
      vertex  2.678500e+002  3.000000e+000  1.523503e+001
    endloop
  endfacet
  facet normal -1.000000e+000  -0.000000e+000  0.000000e+000
    outer loop
      vertex  2.678500e+002  3.000000e+000  1.523503e+001
      vertex  2.678500e+002  0.000000e+000  1.183014e+001
      vertex  2.678500e+002  0.000000e+000  1.523503e+001
    endloop
  endfacet
  facet normal  3.365117e-002  0.000000e+000  9.994336e-001
    outer loop
      vertex  2.701629e+002  0.000000e+000  1.721041e+001
      vertex  2.701629e+002  3.000000e+000  1.721041e+001
      vertex  2.696707e+002  0.000000e+000  1.722698e+001
    endloop
  endfacet
  facet normal  3.365117e-002  -0.000000e+000  9.994336e-001
    outer loop
      vertex  2.696707e+002  0.000000e+000  1.722698e+001
      vertex  2.701629e+002  3.000000e+000  1.721041e+001
      vertex  2.696707e+002  3.000000e+000  1.722698e+001
    endloop
  endfacet
  facet normal -2.115745e-001  0.000000e+000  9.773619e-001
    outer loop
      vertex  2.696707e+002  0.000000e+000  1.722698e+001
      vertex  2.696707e+002  3.000000e+000  1.722698e+001
      vertex  2.691895e+002  0.000000e+000  1.712280e+001
    endloop
  endfacet
  facet normal -2.115745e-001  0.000000e+000  9.773619e-001
    outer loop
      vertex  2.691895e+002  0.000000e+000  1.712280e+001
      vertex  2.696707e+002  3.000000e+000  1.722698e+001
      vertex  2.691895e+002  3.000000e+000  1.712280e+001
    endloop
  endfacet
  facet normal -4.439509e-001  0.000000e+000  8.960511e-001
    outer loop
      vertex  2.691895e+002  0.000000e+000  1.712280e+001
      vertex  2.691895e+002  3.000000e+000  1.712280e+001
      vertex  2.687482e+002  0.000000e+000  1.690417e+001
    endloop
  endfacet
  facet normal -4.439509e-001  0.000000e+000  8.960511e-001
    outer loop
      vertex  2.687482e+002  0.000000e+000  1.690417e+001
      vertex  2.691895e+002  3.000000e+000  1.712280e+001
      vertex  2.687482e+002  3.000000e+000  1.690417e+001
    endloop
  endfacet
  facet normal -6.494410e-001  0.000000e+000  7.604119e-001
    outer loop
      vertex  2.687482e+002  0.000000e+000  1.690417e+001
      vertex  2.687482e+002  3.000000e+000  1.690417e+001
      vertex  2.683737e+002  0.000000e+000  1.658437e+001
    endloop
  endfacet
  facet normal -6.494410e-001  0.000000e+000  7.604119e-001
    outer loop
      vertex  2.683737e+002  0.000000e+000  1.658437e+001
      vertex  2.687482e+002  3.000000e+000  1.690417e+001
      vertex  2.683737e+002  3.000000e+000  1.658437e+001
    endloop
  endfacet
  facet normal -8.155708e-001  0.000000e+000  5.786572e-001
    outer loop
      vertex  2.683737e+002  0.000000e+000  1.658437e+001
      vertex  2.683737e+002  3.000000e+000  1.658437e+001
      vertex  2.680888e+002  0.000000e+000  1.618277e+001
    endloop
  endfacet
  facet normal -8.155708e-001  0.000000e+000  5.786572e-001
    outer loop
      vertex  2.680888e+002  0.000000e+000  1.618277e+001
      vertex  2.683737e+002  3.000000e+000  1.658437e+001
      vertex  2.680888e+002  3.000000e+000  1.618277e+001
    endloop
  endfacet
  facet normal -9.322308e-001  0.000000e+000  3.618641e-001
    outer loop
      vertex  2.680888e+002  0.000000e+000  1.618277e+001
      vertex  2.680888e+002  3.000000e+000  1.618277e+001
      vertex  2.679106e+002  0.000000e+000  1.572371e+001
    endloop
  endfacet
  facet normal -9.322308e-001  0.000000e+000  3.618641e-001
    outer loop
      vertex  2.679106e+002  0.000000e+000  1.572371e+001
      vertex  2.680888e+002  3.000000e+000  1.618277e+001
      vertex  2.679106e+002  3.000000e+000  1.572371e+001
    endloop
  endfacet
  facet normal -9.923967e-001  0.000000e+000  1.230805e-001
    outer loop
      vertex  2.679106e+002  0.000000e+000  1.572371e+001
      vertex  2.679106e+002  3.000000e+000  1.572371e+001
      vertex  2.678500e+002  0.000000e+000  1.523503e+001
    endloop
  endfacet
  facet normal -9.923967e-001  0.000000e+000  1.230805e-001
    outer loop
      vertex  2.678500e+002  0.000000e+000  1.523503e+001
      vertex  2.679106e+002  3.000000e+000  1.572371e+001
      vertex  2.678500e+002  3.000000e+000  1.523503e+001
    endloop
  endfacet
  facet normal  1.564345e-001  -0.000000e+000  9.876883e-001
    outer loop
      vertex  2.219064e+002  3.000000e+000  2.485347e+001
      vertex  2.219064e+002  0.000000e+000  2.485347e+001
      vertex  2.629629e+002  3.000000e+000  1.835077e+001
    endloop
  endfacet
  facet normal  1.564345e-001  0.000000e+000  9.876883e-001
    outer loop
      vertex  2.629629e+002  3.000000e+000  1.835077e+001
      vertex  2.219064e+002  0.000000e+000  2.485347e+001
      vertex  2.629629e+002  0.000000e+000  1.835077e+001
    endloop
  endfacet
  facet normal  1.000000e+000  -0.000000e+000  0.000000e+000
    outer loop
      vertex  2.646500e+002  3.000000e+000  1.637540e+001
      vertex  2.646500e+002  0.000000e+000  1.637540e+001
      vertex  2.646500e+002  3.000000e+000  1.183014e+001
    endloop
  endfacet
  facet normal  1.000000e+000  0.000000e+000  0.000000e+000
    outer loop
      vertex  2.646500e+002  3.000000e+000  1.183014e+001
      vertex  2.646500e+002  0.000000e+000  1.637540e+001
      vertex  2.646500e+002  0.000000e+000  1.183014e+001
    endloop
  endfacet
  facet normal  9.900251e-001  0.000000e+000  1.408912e-001
    outer loop
      vertex  2.646500e+002  0.000000e+000  1.637540e+001
      vertex  2.646500e+002  3.000000e+000  1.637540e+001
      vertex  2.645706e+002  0.000000e+000  1.693338e+001
    endloop
  endfacet
  facet normal  9.900251e-001  -0.000000e+000  1.408912e-001
    outer loop
      vertex  2.645706e+002  0.000000e+000  1.693338e+001
      vertex  2.646500e+002  3.000000e+000  1.637540e+001
      vertex  2.645706e+002  3.000000e+000  1.693338e+001
    endloop
  endfacet
  facet normal  9.114020e-001  0.000000e+000  4.115171e-001
    outer loop
      vertex  2.645706e+002  0.000000e+000  1.693338e+001
      vertex  2.645706e+002  3.000000e+000  1.693338e+001
      vertex  2.643387e+002  0.000000e+000  1.744705e+001
    endloop
  endfacet
  facet normal  9.114020e-001  -0.000000e+000  4.115171e-001
    outer loop
      vertex  2.643387e+002  0.000000e+000  1.744705e+001
      vertex  2.645706e+002  3.000000e+000  1.693338e+001
      vertex  2.643387e+002  3.000000e+000  1.744705e+001
    endloop
  endfacet
  facet normal  7.604092e-001  0.000000e+000  6.494442e-001
    outer loop
      vertex  2.643387e+002  0.000000e+000  1.744705e+001
      vertex  2.643387e+002  3.000000e+000  1.744705e+001
      vertex  2.639726e+002  0.000000e+000  1.787562e+001
    endloop
  endfacet
  facet normal  7.604092e-001  -0.000000e+000  6.494442e-001
    outer loop
      vertex  2.639726e+002  0.000000e+000  1.787562e+001
      vertex  2.643387e+002  3.000000e+000  1.744705e+001
      vertex  2.639726e+002  3.000000e+000  1.787562e+001
    endloop
  endfacet
  facet normal  5.490207e-001  0.000000e+000  8.358088e-001
    outer loop
      vertex  2.639726e+002  0.000000e+000  1.787562e+001
      vertex  2.639726e+002  3.000000e+000  1.787562e+001
      vertex  2.635016e+002  0.000000e+000  1.818505e+001
    endloop
  endfacet
  facet normal  5.490207e-001  -0.000000e+000  8.358088e-001
    outer loop
      vertex  2.635016e+002  0.000000e+000  1.818505e+001
      vertex  2.639726e+002  3.000000e+000  1.787562e+001
      vertex  2.635016e+002  3.000000e+000  1.818505e+001
    endloop
  endfacet
  facet normal  2.940359e-001  0.000000e+000  9.557944e-001
    outer loop
      vertex  2.635016e+002  0.000000e+000  1.818505e+001
      vertex  2.635016e+002  3.000000e+000  1.818505e+001
      vertex  2.629629e+002  0.000000e+000  1.835077e+001
    endloop
  endfacet
  facet normal  2.940359e-001  -0.000000e+000  9.557944e-001
    outer loop
      vertex  2.629629e+002  0.000000e+000  1.835077e+001
      vertex  2.635016e+002  3.000000e+000  1.818505e+001
      vertex  2.629629e+002  3.000000e+000  1.835077e+001
    endloop
  endfacet
  facet normal  0.000000e+000  0.000000e+000 -1.000000e+000
    outer loop
      vertex  3.534127e+002  3.000000e+000  0.000000e+000
      vertex  3.534127e+002  0.000000e+000  0.000000e+000
      vertex  2.217813e+002  3.000000e+000  0.000000e+000
    endloop
  endfacet
  facet normal  0.000000e+000  0.000000e+000 -1.000000e+000
    outer loop
      vertex  2.217813e+002  3.000000e+000  0.000000e+000
      vertex  3.534127e+002  0.000000e+000  0.000000e+000
      vertex  2.217813e+002  0.000000e+000  0.000000e+000
    endloop
  endfacet
  facet normal  1.352427e-001  0.000000e+000 -9.908125e-001
    outer loop
      vertex  3.534127e+002  0.000000e+000  0.000000e+000
      vertex  3.534127e+002  3.000000e+000  0.000000e+000
      vertex  3.539487e+002  0.000000e+000  7.316372e-002
    endloop
  endfacet
  facet normal  1.352427e-001  0.000000e+000 -9.908125e-001
    outer loop
      vertex  3.539487e+002  0.000000e+000  7.316372e-002
      vertex  3.534127e+002  3.000000e+000  0.000000e+000
      vertex  3.539487e+002  3.000000e+000  7.316372e-002
    endloop
  endfacet
  facet normal  3.958532e-001  0.000000e+000 -9.183137e-001
    outer loop
      vertex  3.539487e+002  0.000000e+000  7.316372e-002
      vertex  3.539487e+002  3.000000e+000  7.316372e-002
      vertex  3.544455e+002  0.000000e+000  2.873019e-001
    endloop
  endfacet
  facet normal  3.958532e-001  0.000000e+000 -9.183137e-001
    outer loop
      vertex  3.544455e+002  0.000000e+000  2.873019e-001
      vertex  3.539487e+002  3.000000e+000  7.316372e-002
      vertex  3.544455e+002  3.000000e+000  2.873019e-001
    endloop
  endfacet
  facet normal  6.274619e-001  0.000000e+000 -7.786473e-001
    outer loop
      vertex  3.544455e+002  0.000000e+000  2.873019e-001
      vertex  3.544455e+002  3.000000e+000  2.873019e-001
      vertex  3.548667e+002  0.000000e+000  6.267475e-001
    endloop
  endfacet
  facet normal  6.274619e-001  0.000000e+000 -7.786473e-001
    outer loop
      vertex  3.548667e+002  0.000000e+000  6.267475e-001
      vertex  3.544455e+002  3.000000e+000  2.873019e-001
      vertex  3.548667e+002  3.000000e+000  6.267475e-001
    endloop
  endfacet
  facet normal  8.131887e-001  0.000000e+000 -5.820002e-001
    outer loop
      vertex  3.548667e+002  0.000000e+000  6.267475e-001
      vertex  3.548667e+002  3.000000e+000  6.267475e-001
      vertex  3.551815e+002  0.000000e+000  1.066665e+000
    endloop
  endfacet
  facet normal  8.131887e-001  0.000000e+000 -5.820002e-001
    outer loop
      vertex  3.551815e+002  0.000000e+000  1.066665e+000
      vertex  3.548667e+002  3.000000e+000  6.267475e-001
      vertex  3.551815e+002  3.000000e+000  1.066665e+000
    endloop
  endfacet
  facet normal  9.394228e-001  0.000000e+000 -3.427606e-001
    outer loop
      vertex  3.551815e+002  0.000000e+000  1.066665e+000
      vertex  3.551815e+002  3.000000e+000  1.066665e+000
      vertex  3.553670e+002  0.000000e+000  1.574869e+000
    endloop
  endfacet
  facet normal  9.394228e-001  0.000000e+000 -3.427606e-001
    outer loop
      vertex  3.553670e+002  0.000000e+000  1.574869e+000
      vertex  3.551815e+002  3.000000e+000  1.066665e+000
      vertex  3.553670e+002  3.000000e+000  1.574869e+000
    endloop
  endfacet
  facet normal  9.969166e-001  0.000000e+000 -7.846914e-002
    outer loop
      vertex  3.553670e+002  0.000000e+000  1.574869e+000
      vertex  3.553670e+002  3.000000e+000  1.574869e+000
      vertex  3.554094e+002  0.000000e+000  2.114178e+000
    endloop
  endfacet
  facet normal  9.969166e-001  0.000000e+000 -7.846914e-002
    outer loop
      vertex  3.554094e+002  0.000000e+000  2.114178e+000
      vertex  3.553670e+002  3.000000e+000  1.574869e+000
      vertex  3.554094e+002  3.000000e+000  2.114178e+000
    endloop
  endfacet
  facet normal  9.814779e-001  0.000000e+000  1.915760e-001
    outer loop
      vertex  3.554094e+002  0.000000e+000  2.114178e+000
      vertex  3.554094e+002  3.000000e+000  2.114178e+000
      vertex  3.553058e+002  0.000000e+000  2.645132e+000
    endloop
  endfacet
  facet normal  9.814779e-001  -0.000000e+000  1.915760e-001
    outer loop
      vertex  3.553058e+002  0.000000e+000  2.645132e+000
      vertex  3.554094e+002  3.000000e+000  2.114178e+000
      vertex  3.553058e+002  3.000000e+000  2.645132e+000
    endloop
  endfacet
  facet normal  8.942202e-001  0.000000e+000  4.476273e-001
    outer loop
      vertex  3.553058e+002  0.000000e+000  2.645132e+000
      vertex  3.553058e+002  3.000000e+000  2.645132e+000
      vertex  3.550636e+002  0.000000e+000  3.128886e+000
    endloop
  endfacet
  facet normal  8.942202e-001  -0.000000e+000  4.476273e-001
    outer loop
      vertex  3.550636e+002  0.000000e+000  3.128886e+000
      vertex  3.553058e+002  3.000000e+000  2.645132e+000
      vertex  3.550636e+002  3.000000e+000  3.128886e+000
    endloop
  endfacet
  facet normal  7.415444e-001  0.000000e+000  6.709038e-001
    outer loop
      vertex  3.550636e+002  0.000000e+000  3.128886e+000
      vertex  3.550636e+002  3.000000e+000  3.128886e+000
      vertex  3.547007e+002  0.000000e+000  3.530047e+000
    endloop
  endfacet
  facet normal  7.415444e-001  -0.000000e+000  6.709038e-001
    outer loop
      vertex  3.547007e+002  0.000000e+000  3.530047e+000
      vertex  3.550636e+002  3.000000e+000  3.128886e+000
      vertex  3.547007e+002  3.000000e+000  3.530047e+000
    endloop
  endfacet
  facet normal  5.346127e-001  0.000000e+000  8.450972e-001
    outer loop
      vertex  3.547007e+002  0.000000e+000  3.530047e+000
      vertex  3.547007e+002  3.000000e+000  3.530047e+000
      vertex  3.542435e+002  0.000000e+000  3.819264e+000
    endloop
  endfacet
  facet normal  5.346127e-001  -0.000000e+000  8.450972e-001
    outer loop
      vertex  3.542435e+002  0.000000e+000  3.819264e+000
      vertex  3.547007e+002  3.000000e+000  3.530047e+000
      vertex  3.542435e+002  3.000000e+000  3.819264e+000
    endloop
  endfacet
  facet normal  2.885846e-001  0.000000e+000  9.574544e-001
    outer loop
      vertex  3.542435e+002  0.000000e+000  3.819264e+000
      vertex  3.542435e+002  3.000000e+000  3.819264e+000
      vertex  3.537256e+002  0.000000e+000  3.975377e+000
    endloop
  endfacet
  facet normal  2.885846e-001  -0.000000e+000  9.574544e-001
    outer loop
      vertex  3.537256e+002  0.000000e+000  3.975377e+000
      vertex  3.542435e+002  3.000000e+000  3.819264e+000
      vertex  3.537256e+002  3.000000e+000  3.975377e+000
    endloop
  endfacet
  facet normal -1.000000e+000  0.000000e+000  0.000000e+000
    outer loop
      vertex  2.209813e+002  3.000000e+000  1.844984e+001
      vertex  2.209813e+002  0.000000e+000  1.844984e+001
      vertex  2.209813e+002  3.000000e+000  2.406332e+001
    endloop
  endfacet
  facet normal -1.000000e+000  -0.000000e+000  0.000000e+000
    outer loop
      vertex  2.209813e+002  3.000000e+000  2.406332e+001
      vertex  2.209813e+002  0.000000e+000  1.844984e+001
      vertex  2.209813e+002  0.000000e+000  2.406332e+001
    endloop
  endfacet
  facet normal -5.887332e-002  0.000000e+000  9.982654e-001
    outer loop
      vertex  2.219064e+002  0.000000e+000  2.485347e+001
      vertex  2.219064e+002  3.000000e+000  2.485347e+001
      vertex  2.215641e+002  0.000000e+000  2.483328e+001
    endloop
  endfacet
  facet normal -5.887332e-002  0.000000e+000  9.982654e-001
    outer loop
      vertex  2.215641e+002  0.000000e+000  2.483328e+001
      vertex  2.219064e+002  3.000000e+000  2.485347e+001
      vertex  2.215641e+002  3.000000e+000  2.483328e+001
    endloop
  endfacet
  facet normal -4.714074e-001  0.000000e+000  8.819156e-001
    outer loop
      vertex  2.215641e+002  0.000000e+000  2.483328e+001
      vertex  2.215641e+002  3.000000e+000  2.483328e+001
      vertex  2.212617e+002  0.000000e+000  2.467164e+001
    endloop
  endfacet
  facet normal -4.714074e-001  0.000000e+000  8.819156e-001
    outer loop
      vertex  2.212617e+002  0.000000e+000  2.467164e+001
      vertex  2.215641e+002  3.000000e+000  2.483328e+001
      vertex  2.212617e+002  3.000000e+000  2.467164e+001
    endloop
  endfacet
  facet normal -7.973207e-001  0.000000e+000  6.035559e-001
    outer loop
      vertex  2.212617e+002  0.000000e+000  2.467164e+001
      vertex  2.212617e+002  3.000000e+000  2.467164e+001
      vertex  2.210548e+002  0.000000e+000  2.439825e+001
    endloop
  endfacet
  facet normal -7.973207e-001  0.000000e+000  6.035559e-001
    outer loop
      vertex  2.210548e+002  0.000000e+000  2.439825e+001
      vertex  2.212617e+002  3.000000e+000  2.467164e+001
      vertex  2.210548e+002  3.000000e+000  2.439825e+001
    endloop
  endfacet
  facet normal -9.767654e-001  0.000000e+000  2.143111e-001
    outer loop
      vertex  2.210548e+002  0.000000e+000  2.439825e+001
      vertex  2.210548e+002  3.000000e+000  2.439825e+001
      vertex  2.209813e+002  0.000000e+000  2.406332e+001
    endloop
  endfacet
  facet normal -9.767654e-001  0.000000e+000  2.143111e-001
    outer loop
      vertex  2.209813e+002  0.000000e+000  2.406332e+001
      vertex  2.210548e+002  3.000000e+000  2.439825e+001
      vertex  2.209813e+002  3.000000e+000  2.406332e+001
    endloop
  endfacet
  facet normal -1.000000e+000  0.000000e+000  0.000000e+000
    outer loop
      vertex  2.209813e+002  3.000000e+000  8.000000e-001
      vertex  2.209813e+002  0.000000e+000  8.000000e-001
      vertex  2.209813e+002  3.000000e+000  6.962991e+000
    endloop
  endfacet
  facet normal -1.000000e+000  -0.000000e+000  0.000000e+000
    outer loop
      vertex  2.209813e+002  3.000000e+000  6.962991e+000
      vertex  2.209813e+002  0.000000e+000  8.000000e-001
      vertex  2.209813e+002  0.000000e+000  6.962991e+000
    endloop
  endfacet
  facet normal -9.807844e-001  -0.000000e+000 -1.950948e-001
    outer loop
      vertex  2.209813e+002  0.000000e+000  8.000000e-001
      vertex  2.209813e+002  3.000000e+000  8.000000e-001
      vertex  2.210422e+002  0.000000e+000  4.938532e-001
    endloop
  endfacet
  facet normal -9.807844e-001  0.000000e+000 -1.950948e-001
    outer loop
      vertex  2.210422e+002  0.000000e+000  4.938532e-001
      vertex  2.209813e+002  3.000000e+000  8.000000e-001
      vertex  2.210422e+002  3.000000e+000  4.938532e-001
    endloop
  endfacet
  facet normal -8.314726e-001  -0.000000e+000 -5.555657e-001
    outer loop
      vertex  2.210422e+002  0.000000e+000  4.938532e-001
      vertex  2.210422e+002  3.000000e+000  4.938532e-001
      vertex  2.212156e+002  0.000000e+000  2.343146e-001
    endloop
  endfacet
  facet normal -8.314726e-001  0.000000e+000 -5.555657e-001
    outer loop
      vertex  2.212156e+002  0.000000e+000  2.343146e-001
      vertex  2.210422e+002  3.000000e+000  4.938532e-001
      vertex  2.212156e+002  3.000000e+000  2.343146e-001
    endloop
  endfacet
  facet normal -5.555731e-001  -0.000000e+000 -8.314677e-001
    outer loop
      vertex  2.212156e+002  0.000000e+000  2.343146e-001
      vertex  2.212156e+002  3.000000e+000  2.343146e-001
      vertex  2.214752e+002  0.000000e+000  6.089637e-002
    endloop
  endfacet
  facet normal -5.555731e-001  0.000000e+000 -8.314677e-001
    outer loop
      vertex  2.214752e+002  0.000000e+000  6.089637e-002
      vertex  2.212156e+002  3.000000e+000  2.343146e-001
      vertex  2.214752e+002  3.000000e+000  6.089637e-002
    endloop
  endfacet
  facet normal -1.950963e-001  -0.000000e+000 -9.807841e-001
    outer loop
      vertex  2.214752e+002  0.000000e+000  6.089637e-002
      vertex  2.214752e+002  3.000000e+000  6.089637e-002
      vertex  2.217813e+002  0.000000e+000  0.000000e+000
    endloop
  endfacet
  facet normal -1.950963e-001  0.000000e+000 -9.807841e-001
    outer loop
      vertex  2.217813e+002  0.000000e+000  0.000000e+000
      vertex  2.214752e+002  3.000000e+000  6.089637e-002
      vertex  2.217813e+002  3.000000e+000  0.000000e+000
    endloop
  endfacet
  facet normal -1.000000e+000  0.000000e+000  0.000000e+000
    outer loop
      vertex  2.179813e+002  3.000000e+000  6.616581e+000
      vertex  2.179813e+002  0.000000e+000  6.616581e+000
      vertex  2.179813e+002  3.000000e+000  1.879625e+001
    endloop
  endfacet
  facet normal -1.000000e+000  -0.000000e+000  0.000000e+000
    outer loop
      vertex  2.179813e+002  3.000000e+000  1.879625e+001
      vertex  2.179813e+002  0.000000e+000  6.616581e+000
      vertex  2.179813e+002  0.000000e+000  1.879625e+001
    endloop
  endfacet
  facet normal  4.999993e-001  0.000000e+000 -8.660258e-001
    outer loop
      vertex  2.209813e+002  3.000000e+000  6.962991e+000
      vertex  2.209813e+002  0.000000e+000  6.962991e+000
      vertex  2.191813e+002  3.000000e+000  5.923760e+000
    endloop
  endfacet
  facet normal  4.999993e-001  0.000000e+000 -8.660258e-001
    outer loop
      vertex  2.191813e+002  3.000000e+000  5.923760e+000
      vertex  2.209813e+002  0.000000e+000  6.962991e+000
      vertex  2.191813e+002  0.000000e+000  5.923760e+000
    endloop
  endfacet
  facet normal -9.781542e-001  -0.000000e+000 -2.078806e-001
    outer loop
      vertex  2.179813e+002  0.000000e+000  6.616581e+000
      vertex  2.179813e+002  3.000000e+000  6.616581e+000
      vertex  2.180505e+002  0.000000e+000  6.291192e+000
    endloop
  endfacet
  facet normal -9.781542e-001  0.000000e+000 -2.078806e-001
    outer loop
      vertex  2.180505e+002  0.000000e+000  6.291192e+000
      vertex  2.179813e+002  3.000000e+000  6.616581e+000
      vertex  2.180505e+002  3.000000e+000  6.291192e+000
    endloop
  endfacet
  facet normal -8.090038e-001  -0.000000e+000 -5.878035e-001
    outer loop
      vertex  2.180505e+002  0.000000e+000  6.291192e+000
      vertex  2.180505e+002  3.000000e+000  6.291192e+000
      vertex  2.182460e+002  0.000000e+000  6.022065e+000
    endloop
  endfacet
  facet normal -8.090038e-001  0.000000e+000 -5.878035e-001
    outer loop
      vertex  2.182460e+002  0.000000e+000  6.022065e+000
      vertex  2.180505e+002  3.000000e+000  6.291192e+000
      vertex  2.182460e+002  3.000000e+000  6.022065e+000
    endloop
  endfacet
  facet normal -5.000054e-001  -0.000000e+000 -8.660223e-001
    outer loop
      vertex  2.182460e+002  0.000000e+000  6.022065e+000
      vertex  2.182460e+002  3.000000e+000  6.022065e+000
      vertex  2.185341e+002  0.000000e+000  5.855736e+000
    endloop
  endfacet
  facet normal -5.000054e-001  0.000000e+000 -8.660223e-001
    outer loop
      vertex  2.185341e+002  0.000000e+000  5.855736e+000
      vertex  2.182460e+002  3.000000e+000  6.022065e+000
      vertex  2.185341e+002  3.000000e+000  5.855736e+000
    endloop
  endfacet
  facet normal -1.045273e-001  -0.000000e+000 -9.945219e-001
    outer loop
      vertex  2.185341e+002  0.000000e+000  5.855736e+000
      vertex  2.185341e+002  3.000000e+000  5.855736e+000
      vertex  2.188649e+002  0.000000e+000  5.820963e+000
    endloop
  endfacet
  facet normal -1.045273e-001  0.000000e+000 -9.945219e-001
    outer loop
      vertex  2.188649e+002  0.000000e+000  5.820963e+000
      vertex  2.185341e+002  3.000000e+000  5.855736e+000
      vertex  2.188649e+002  3.000000e+000  5.820963e+000
    endloop
  endfacet
  facet normal  3.090179e-001  0.000000e+000 -9.510563e-001
    outer loop
      vertex  2.188649e+002  0.000000e+000  5.820963e+000
      vertex  2.188649e+002  3.000000e+000  5.820963e+000
      vertex  2.191813e+002  0.000000e+000  5.923760e+000
    endloop
  endfacet
  facet normal  3.090179e-001  0.000000e+000 -9.510563e-001
    outer loop
      vertex  2.191813e+002  0.000000e+000  5.923760e+000
      vertex  2.188649e+002  3.000000e+000  5.820963e+000
      vertex  2.191813e+002  3.000000e+000  5.923760e+000
    endloop
  endfacet
  facet normal  4.999993e-001  -0.000000e+000  8.660258e-001
    outer loop
      vertex  2.191813e+002  3.000000e+000  1.948907e+001
      vertex  2.191813e+002  0.000000e+000  1.948907e+001
      vertex  2.209813e+002  3.000000e+000  1.844984e+001
    endloop
  endfacet
  facet normal  4.999993e-001  0.000000e+000  8.660258e-001
    outer loop
      vertex  2.209813e+002  3.000000e+000  1.844984e+001
      vertex  2.191813e+002  0.000000e+000  1.948907e+001
      vertex  2.209813e+002  0.000000e+000  1.844984e+001
    endloop
  endfacet
  facet normal  3.090166e-001  0.000000e+000  9.510567e-001
    outer loop
      vertex  2.191813e+002  0.000000e+000  1.948907e+001
      vertex  2.191813e+002  3.000000e+000  1.948907e+001
      vertex  2.188649e+002  0.000000e+000  1.959186e+001
    endloop
  endfacet
  facet normal  3.090166e-001  -0.000000e+000  9.510567e-001
    outer loop
      vertex  2.188649e+002  0.000000e+000  1.959186e+001
      vertex  2.191813e+002  3.000000e+000  1.948907e+001
      vertex  2.188649e+002  3.000000e+000  1.959186e+001
    endloop
  endfacet
  facet normal -1.045230e-001  0.000000e+000  9.945224e-001
    outer loop
      vertex  2.188649e+002  0.000000e+000  1.959186e+001
      vertex  2.188649e+002  3.000000e+000  1.959186e+001
      vertex  2.185341e+002  0.000000e+000  1.955709e+001
    endloop
  endfacet
  facet normal -1.045230e-001  0.000000e+000  9.945224e-001
    outer loop
      vertex  2.185341e+002  0.000000e+000  1.955709e+001
      vertex  2.188649e+002  3.000000e+000  1.959186e+001
      vertex  2.185341e+002  3.000000e+000  1.955709e+001
    endloop
  endfacet
  facet normal -5.000086e-001  0.000000e+000  8.660204e-001
    outer loop
      vertex  2.185341e+002  0.000000e+000  1.955709e+001
      vertex  2.185341e+002  3.000000e+000  1.955709e+001
      vertex  2.182460e+002  0.000000e+000  1.939076e+001
    endloop
  endfacet
  facet normal -5.000086e-001  0.000000e+000  8.660204e-001
    outer loop
      vertex  2.182460e+002  0.000000e+000  1.939076e+001
      vertex  2.185341e+002  3.000000e+000  1.955709e+001
      vertex  2.182460e+002  3.000000e+000  1.939076e+001
    endloop
  endfacet
  facet normal -8.090038e-001  0.000000e+000  5.878035e-001
    outer loop
      vertex  2.182460e+002  0.000000e+000  1.939076e+001
      vertex  2.182460e+002  3.000000e+000  1.939076e+001
      vertex  2.180505e+002  0.000000e+000  1.912164e+001
    endloop
  endfacet
  facet normal -8.090038e-001  0.000000e+000  5.878035e-001
    outer loop
      vertex  2.180505e+002  0.000000e+000  1.912164e+001
      vertex  2.182460e+002  3.000000e+000  1.939076e+001
      vertex  2.180505e+002  3.000000e+000  1.912164e+001
    endloop
  endfacet
  facet normal -9.781540e-001  0.000000e+000  2.078815e-001
    outer loop
      vertex  2.180505e+002  0.000000e+000  1.912164e+001
      vertex  2.180505e+002  3.000000e+000  1.912164e+001
      vertex  2.179813e+002  0.000000e+000  1.879625e+001
    endloop
  endfacet
  facet normal -9.781540e-001  0.000000e+000  2.078815e-001
    outer loop
      vertex  2.179813e+002  0.000000e+000  1.879625e+001
      vertex  2.180505e+002  3.000000e+000  1.912164e+001
      vertex  2.179813e+002  3.000000e+000  1.879625e+001
    endloop
  endfacet
  facet normal  0.000000e+000  0.000000e+000  1.000000e+000
    outer loop
      vertex  2.646500e+002  3.000000e+000  1.183014e+001
      vertex  2.646500e+002  0.000000e+000  1.183014e+001
      vertex  2.678500e+002  3.000000e+000  1.183014e+001
    endloop
  endfacet
  facet normal  0.000000e+000  0.000000e+000  1.000000e+000
    outer loop
      vertex  2.678500e+002  3.000000e+000  1.183014e+001
      vertex  2.646500e+002  0.000000e+000  1.183014e+001
      vertex  2.678500e+002  0.000000e+000  1.183014e+001
    endloop
  endfacet
endsolid CATIA STL
