solid CATIA STL
  facet normal  0.000000e+000  1.000000e+000  0.000000e+000
    outer loop
      vertex  1.552635e+002  3.000000e+000  2.301102e+001
      vertex  1.542439e+002  3.000000e+000  2.298661e+001
      vertex  1.547521e+002  3.000000e+000  2.306489e+001
    endloop
  endfacet
  facet normal  0.000000e+000  1.000000e+000  0.000000e+000
    outer loop
      vertex  8.900000e+001  3.000000e+000  6.962991e+000
      vertex  8.600000e+001  3.000000e+000  6.616581e+000
      vertex  8.600000e+001  3.000000e+000  3.275540e+001
    endloop
  endfacet
  facet normal  0.000000e+000  1.000000e+000  0.000000e+000
    outer loop
      vertex  8.900000e+001  3.000000e+000  6.962991e+000
      vertex  8.600000e+001  3.000000e+000  3.275540e+001
      vertex  8.900000e+001  3.000000e+000  3.240899e+001
    endloop
  endfacet
  facet normal  0.000000e+000  1.000000e+000  0.000000e+000
    outer loop
      vertex  8.900000e+001  3.000000e+000  6.962991e+000
      vertex  8.900000e+001  3.000000e+000  3.240899e+001
      vertex  1.496000e+002  3.000000e+000  2.278075e+001
    endloop
  endfacet
  facet normal  0.000000e+000  1.000000e+000  0.000000e+000
    outer loop
      vertex  8.900000e+001  3.000000e+000  6.962991e+000
      vertex  1.496000e+002  3.000000e+000  2.278075e+001
      vertex  1.496000e+002  3.000000e+000  1.797908e+001
    endloop
  endfacet
  facet normal  0.000000e+000  9.999999e-001  0.000000e+000
    outer loop
      vertex  1.496000e+002  3.000000e+000  2.278075e+001
      vertex  8.900000e+001  3.000000e+000  3.240899e+001
      vertex  1.480635e+002  3.000000e+000  2.472630e+001
    endloop
  endfacet
  facet normal  0.000000e+000  1.000000e+000  0.000000e+000
    outer loop
      vertex  1.496000e+002  3.000000e+000  2.278075e+001
      vertex  1.480635e+002  3.000000e+000  2.472630e+001
      vertex  1.485611e+002  3.000000e+000  2.453470e+001
    endloop
  endfacet
  facet normal  0.000000e+000  1.000000e+000  0.000000e+000
    outer loop
      vertex  1.496000e+002  3.000000e+000  2.278075e+001
      vertex  1.485611e+002  3.000000e+000  2.453470e+001
      vertex  1.489903e+002  3.000000e+000  2.421846e+001
    endloop
  endfacet
  facet normal  0.000000e+000  9.999999e-001  0.000000e+000
    outer loop
      vertex  1.496000e+002  3.000000e+000  2.278075e+001
      vertex  1.489903e+002  3.000000e+000  2.421846e+001
      vertex  1.493208e+002  3.000000e+000  2.380003e+001
    endloop
  endfacet
  facet normal  0.000000e+000  9.999999e-001  0.000000e+000
    outer loop
      vertex  1.496000e+002  3.000000e+000  2.278075e+001
      vertex  1.493208e+002  3.000000e+000  2.380003e+001
      vertex  1.495289e+002  3.000000e+000  2.330917e+001
    endloop
  endfacet
  facet normal  -0.000000e+000  1.000000e+000  0.000000e+000
    outer loop
      vertex  1.480635e+002  3.000000e+000  2.472630e+001
      vertex  8.900000e+001  3.000000e+000  3.240899e+001
      vertex  8.900000e+001  3.000000e+000  3.778423e+001
    endloop
  endfacet
  facet normal  -0.000000e+000  1.000000e+000  0.000000e+000
    outer loop
      vertex  1.480635e+002  3.000000e+000  2.472630e+001
      vertex  8.900000e+001  3.000000e+000  3.778423e+001
      vertex  8.905154e+001  3.000000e+000  3.806675e+001
    endloop
  endfacet
  facet normal  -0.000000e+000  1.000000e+000  0.000000e+000
    outer loop
      vertex  1.480635e+002  3.000000e+000  2.472630e+001
      vertex  8.905154e+001  3.000000e+000  3.806675e+001
      vertex  8.919954e+001  3.000000e+000  3.831286e+001
    endloop
  endfacet
  facet normal  -0.000000e+000  9.999999e-001  0.000000e+000
    outer loop
      vertex  1.480635e+002  3.000000e+000  2.472630e+001
      vertex  8.919954e+001  3.000000e+000  3.831286e+001
      vertex  8.942492e+001  3.000000e+000  3.849085e+001
    endloop
  endfacet
  facet normal  -0.000000e+000  1.000000e+000  0.000000e+000
    outer loop
      vertex  1.480635e+002  3.000000e+000  2.472630e+001
      vertex  8.942492e+001  3.000000e+000  3.849085e+001
      vertex  8.969862e+001  3.000000e+000  3.857779e+001
    endloop
  endfacet
  facet normal  0.000000e+000  1.000000e+000  0.000000e+000
    outer loop
      vertex  1.480635e+002  3.000000e+000  2.472630e+001
      vertex  8.969862e+001  3.000000e+000  3.857779e+001
      vertex  8.998540e+001  3.000000e+000  3.856245e+001
    endloop
  endfacet
  facet normal  0.000000e+000  1.000000e+000  0.000000e+000
    outer loop
      vertex  2.352919e+002  3.000000e+000  3.945552e+000
      vertex  8.900000e+001  3.000000e+000  8.000000e-001
      vertex  8.900000e+001  3.000000e+000  6.962991e+000
    endloop
  endfacet
  facet normal  -0.000000e+000  1.000000e+000  0.000000e+000
    outer loop
      vertex  2.352919e+002  3.000000e+000  3.945552e+000
      vertex  8.900000e+001  3.000000e+000  6.962991e+000
      vertex  1.496000e+002  3.000000e+000  1.797908e+001
    endloop
  endfacet
  facet normal  -0.000000e+000  1.000000e+000  0.000000e+000
    outer loop
      vertex  2.352919e+002  3.000000e+000  3.945552e+000
      vertex  1.496000e+002  3.000000e+000  1.797908e+001
      vertex  1.528000e+002  3.000000e+000  1.797908e+001
    endloop
  endfacet
  facet normal  -0.000000e+000  9.999999e-001  0.000000e+000
    outer loop
      vertex  2.352919e+002  3.000000e+000  3.945552e+000
      vertex  1.528000e+002  3.000000e+000  1.797908e+001
      vertex  1.528000e+002  3.000000e+000  2.106547e+001
    endloop
  endfacet
  facet normal  -0.000000e+000  1.000000e+000  0.000000e+000
    outer loop
      vertex  2.352919e+002  3.000000e+000  3.945552e+000
      vertex  1.528000e+002  3.000000e+000  2.106547e+001
      vertex  1.528661e+002  3.000000e+000  2.157539e+001
    endloop
  endfacet
  facet normal  -0.000000e+000  1.000000e+000  0.000000e+000
    outer loop
      vertex  2.352919e+002  3.000000e+000  3.945552e+000
      vertex  1.528661e+002  3.000000e+000  2.157539e+001
      vertex  1.530600e+002  3.000000e+000  2.205161e+001
    endloop
  endfacet
  facet normal  -0.000000e+000  1.000000e+000  0.000000e+000
    outer loop
      vertex  2.352919e+002  3.000000e+000  3.945552e+000
      vertex  1.530600e+002  3.000000e+000  2.205161e+001
      vertex  1.533690e+002  3.000000e+000  2.246265e+001
    endloop
  endfacet
  facet normal  -0.000000e+000  1.000000e+000  0.000000e+000
    outer loop
      vertex  2.352919e+002  3.000000e+000  3.945552e+000
      vertex  1.533690e+002  3.000000e+000  2.246265e+001
      vertex  1.537725e+002  3.000000e+000  2.278134e+001
    endloop
  endfacet
  facet normal  -0.000000e+000  1.000000e+000  0.000000e+000
    outer loop
      vertex  2.352919e+002  3.000000e+000  3.945552e+000
      vertex  1.537725e+002  3.000000e+000  2.278134e+001
      vertex  1.542439e+002  3.000000e+000  2.298661e+001
    endloop
  endfacet
  facet normal  -0.000000e+000  1.000000e+000  0.000000e+000
    outer loop
      vertex  2.352919e+002  3.000000e+000  3.945552e+000
      vertex  1.542439e+002  3.000000e+000  2.298661e+001
      vertex  1.552635e+002  3.000000e+000  2.301102e+001
    endloop
  endfacet
  facet normal  0.000000e+000  1.000000e+000  0.000000e+000
    outer loop
      vertex  8.900000e+001  3.000000e+000  8.000000e-001
      vertex  2.352919e+002  3.000000e+000  3.945552e+000
      vertex  2.357842e+002  3.000000e+000  3.756876e+000
    endloop
  endfacet
  facet normal  0.000000e+000  1.000000e+000  0.000000e+000
    outer loop
      vertex  8.900000e+001  3.000000e+000  8.000000e-001
      vertex  2.357842e+002  3.000000e+000  3.756876e+000
      vertex  2.362100e+002  3.000000e+000  3.446153e+000
    endloop
  endfacet
  facet normal  0.000000e+000  1.000000e+000  0.000000e+000
    outer loop
      vertex  8.900000e+001  3.000000e+000  8.000000e-001
      vertex  2.362100e+002  3.000000e+000  3.446153e+000
      vertex  2.365398e+002  3.000000e+000  3.034968e+000
    endloop
  endfacet
  facet normal  0.000000e+000  1.000000e+000  0.000000e+000
    outer loop
      vertex  8.900000e+001  3.000000e+000  8.000000e-001
      vertex  2.365398e+002  3.000000e+000  3.034968e+000
      vertex  2.367508e+002  3.000000e+000  2.551885e+000
    endloop
  endfacet
  facet normal  0.000000e+000  1.000000e+000  0.000000e+000
    outer loop
      vertex  8.900000e+001  3.000000e+000  8.000000e-001
      vertex  2.367508e+002  3.000000e+000  2.551885e+000
      vertex  2.368282e+002  3.000000e+000  2.030463e+000
    endloop
  endfacet
  facet normal  0.000000e+000  1.000000e+000  0.000000e+000
    outer loop
      vertex  8.900000e+001  3.000000e+000  8.000000e-001
      vertex  2.368282e+002  3.000000e+000  2.030463e+000
      vertex  2.367667e+002  3.000000e+000  1.506925e+000
    endloop
  endfacet
  facet normal  0.000000e+000  1.000000e+000  0.000000e+000
    outer loop
      vertex  8.900000e+001  3.000000e+000  8.000000e-001
      vertex  2.367667e+002  3.000000e+000  1.506925e+000
      vertex  2.365706e+002  3.000000e+000  1.017640e+000
    endloop
  endfacet
  facet normal  0.000000e+000  9.999999e-001  0.000000e+000
    outer loop
      vertex  8.900000e+001  3.000000e+000  8.000000e-001
      vertex  2.365706e+002  3.000000e+000  1.017640e+000
      vertex  2.362534e+002  3.000000e+000  5.965980e-001
    endloop
  endfacet
  facet normal  0.000000e+000  1.000000e+000  0.000000e+000
    outer loop
      vertex  8.900000e+001  3.000000e+000  8.000000e-001
      vertex  2.362534e+002  3.000000e+000  5.965980e-001
      vertex  8.906090e+001  3.000000e+000  4.938532e-001
    endloop
  endfacet
  facet normal  0.000000e+000  1.000000e+000  -0.000000e+000
    outer loop
      vertex  8.720000e+001  3.000000e+000  5.923760e+000
      vertex  8.688362e+001  3.000000e+000  5.820963e+000
      vertex  8.655279e+001  3.000000e+000  5.855736e+000
    endloop
  endfacet
  facet normal  0.000000e+000  1.000000e+000  -0.000000e+000
    outer loop
      vertex  8.720000e+001  3.000000e+000  5.923760e+000
      vertex  8.655279e+001  3.000000e+000  5.855736e+000
      vertex  8.626469e+001  3.000000e+000  6.022065e+000
    endloop
  endfacet
  facet normal  -0.000000e+000  1.000000e+000  -0.000000e+000
    outer loop
      vertex  8.720000e+001  3.000000e+000  5.923760e+000
      vertex  8.626469e+001  3.000000e+000  6.022065e+000
      vertex  8.606916e+001  3.000000e+000  6.291192e+000
    endloop
  endfacet
  facet normal  -0.000000e+000  1.000000e+000  -0.000000e+000
    outer loop
      vertex  8.720000e+001  3.000000e+000  5.923760e+000
      vertex  8.606916e+001  3.000000e+000  6.291192e+000
      vertex  8.600000e+001  3.000000e+000  6.616581e+000
    endloop
  endfacet
  facet normal  -0.000000e+000  1.000000e+000  0.000000e+000
    outer loop
      vertex  8.720000e+001  3.000000e+000  5.923760e+000
      vertex  8.600000e+001  3.000000e+000  6.616581e+000
      vertex  8.900000e+001  3.000000e+000  6.962991e+000
    endloop
  endfacet
  facet normal  0.000000e+000  9.999999e-001  0.000000e+000
    outer loop
      vertex  8.655279e+001  3.000000e+000  3.351624e+001
      vertex  8.688362e+001  3.000000e+000  3.355102e+001
      vertex  8.626469e+001  3.000000e+000  3.334991e+001
    endloop
  endfacet
  facet normal  0.000000e+000  1.000000e+000  0.000000e+000
    outer loop
      vertex  8.626469e+001  3.000000e+000  3.334991e+001
      vertex  8.688362e+001  3.000000e+000  3.355102e+001
      vertex  8.720000e+001  3.000000e+000  3.344822e+001
    endloop
  endfacet
  facet normal  0.000000e+000  1.000000e+000  0.000000e+000
    outer loop
      vertex  8.626469e+001  3.000000e+000  3.334991e+001
      vertex  8.720000e+001  3.000000e+000  3.344822e+001
      vertex  8.606916e+001  3.000000e+000  3.308079e+001
    endloop
  endfacet
  facet normal  -0.000000e+000  1.000000e+000  0.000000e+000
    outer loop
      vertex  8.606916e+001  3.000000e+000  3.308079e+001
      vertex  8.720000e+001  3.000000e+000  3.344822e+001
      vertex  8.900000e+001  3.000000e+000  3.240899e+001
    endloop
  endfacet
  facet normal  0.000000e+000  1.000000e+000  0.000000e+000
    outer loop
      vertex  8.606916e+001  3.000000e+000  3.308079e+001
      vertex  8.900000e+001  3.000000e+000  3.240899e+001
      vertex  8.600000e+001  3.000000e+000  3.275540e+001
    endloop
  endfacet
  facet normal  0.000000e+000  1.000000e+000  0.000000e+000
    outer loop
      vertex  8.906090e+001  3.000000e+000  4.938532e-001
      vertex  2.362534e+002  3.000000e+000  5.965980e-001
      vertex  8.923431e+001  3.000000e+000  2.343146e-001
    endloop
  endfacet
  facet normal  0.000000e+000  1.000000e+000  0.000000e+000
    outer loop
      vertex  8.923431e+001  3.000000e+000  2.343146e-001
      vertex  2.362534e+002  3.000000e+000  5.965980e-001
      vertex  2.358372e+002  3.000000e+000  2.730488e-001
    endloop
  endfacet
  facet normal  0.000000e+000  1.000000e+000  0.000000e+000
    outer loop
      vertex  8.923431e+001  3.000000e+000  2.343146e-001
      vertex  2.358372e+002  3.000000e+000  2.730488e-001
      vertex  8.949385e+001  3.000000e+000  6.089637e-002
    endloop
  endfacet
  facet normal  0.000000e+000  1.000000e+000  0.000000e+000
    outer loop
      vertex  8.949385e+001  3.000000e+000  6.089637e-002
      vertex  2.358372e+002  3.000000e+000  2.730488e-001
      vertex  2.353510e+002  3.000000e+000  6.946868e-002
    endloop
  endfacet
  facet normal  0.000000e+000  1.000000e+000  0.000000e+000
    outer loop
      vertex  8.949385e+001  3.000000e+000  6.089637e-002
      vertex  2.353510e+002  3.000000e+000  6.946868e-002
      vertex  8.980000e+001  3.000000e+000  0.000000e+000
    endloop
  endfacet
  facet normal  0.000000e+000  1.000000e+000  0.000000e+000
    outer loop
      vertex  8.980000e+001  3.000000e+000  0.000000e+000
      vertex  2.353510e+002  3.000000e+000  6.946868e-002
      vertex  2.348284e+002  3.000000e+000  0.000000e+000
    endloop
  endfacet
  facet normal  0.000000e+000 -1.000000e+000  0.000000e+000
    outer loop
      vertex  1.547521e+002  0.000000e+000  2.306489e+001
      vertex  1.542439e+002  0.000000e+000  2.298661e+001
      vertex  1.552635e+002  0.000000e+000  2.301102e+001
    endloop
  endfacet
  facet normal  -0.000000e+000 -1.000000e+000  0.000000e+000
    outer loop
      vertex  8.900000e+001  0.000000e+000  6.962991e+000
      vertex  1.496000e+002  0.000000e+000  1.797908e+001
      vertex  1.496000e+002  0.000000e+000  2.278075e+001
    endloop
  endfacet
  facet normal  -0.000000e+000 -1.000000e+000  0.000000e+000
    outer loop
      vertex  8.900000e+001  0.000000e+000  6.962991e+000
      vertex  1.496000e+002  0.000000e+000  2.278075e+001
      vertex  8.900000e+001  0.000000e+000  3.240899e+001
    endloop
  endfacet
  facet normal  -0.000000e+000 -1.000000e+000  -0.000000e+000
    outer loop
      vertex  8.900000e+001  0.000000e+000  6.962991e+000
      vertex  8.900000e+001  0.000000e+000  3.240899e+001
      vertex  8.600000e+001  0.000000e+000  3.275540e+001
    endloop
  endfacet
  facet normal  0.000000e+000 -1.000000e+000  0.000000e+000
    outer loop
      vertex  8.900000e+001  0.000000e+000  6.962991e+000
      vertex  8.600000e+001  0.000000e+000  3.275540e+001
      vertex  8.600000e+001  0.000000e+000  6.616581e+000
    endloop
  endfacet
  facet normal  -0.000000e+000 -9.999999e-001  -0.000000e+000
    outer loop
      vertex  1.496000e+002  0.000000e+000  2.278075e+001
      vertex  1.495289e+002  0.000000e+000  2.330917e+001
      vertex  1.493208e+002  0.000000e+000  2.380003e+001
    endloop
  endfacet
  facet normal  -0.000000e+000 -9.999999e-001  -0.000000e+000
    outer loop
      vertex  1.496000e+002  0.000000e+000  2.278075e+001
      vertex  1.493208e+002  0.000000e+000  2.380003e+001
      vertex  1.489903e+002  0.000000e+000  2.421846e+001
    endloop
  endfacet
  facet normal  -0.000000e+000 -1.000000e+000  -0.000000e+000
    outer loop
      vertex  1.496000e+002  0.000000e+000  2.278075e+001
      vertex  1.489903e+002  0.000000e+000  2.421846e+001
      vertex  1.485611e+002  0.000000e+000  2.453470e+001
    endloop
  endfacet
  facet normal  -0.000000e+000 -1.000000e+000  -0.000000e+000
    outer loop
      vertex  1.496000e+002  0.000000e+000  2.278075e+001
      vertex  1.485611e+002  0.000000e+000  2.453470e+001
      vertex  1.480635e+002  0.000000e+000  2.472630e+001
    endloop
  endfacet
  facet normal  -0.000000e+000 -9.999999e-001  -0.000000e+000
    outer loop
      vertex  1.496000e+002  0.000000e+000  2.278075e+001
      vertex  1.480635e+002  0.000000e+000  2.472630e+001
      vertex  8.900000e+001  0.000000e+000  3.240899e+001
    endloop
  endfacet
  facet normal  -0.000000e+000 -1.000000e+000  -0.000000e+000
    outer loop
      vertex  1.480635e+002  0.000000e+000  2.472630e+001
      vertex  8.998540e+001  0.000000e+000  3.856245e+001
      vertex  8.969862e+001  0.000000e+000  3.857779e+001
    endloop
  endfacet
  facet normal  0.000000e+000 -1.000000e+000  -0.000000e+000
    outer loop
      vertex  1.480635e+002  0.000000e+000  2.472630e+001
      vertex  8.969862e+001  0.000000e+000  3.857779e+001
      vertex  8.942492e+001  0.000000e+000  3.849085e+001
    endloop
  endfacet
  facet normal  0.000000e+000 -9.999999e-001  -0.000000e+000
    outer loop
      vertex  1.480635e+002  0.000000e+000  2.472630e+001
      vertex  8.942492e+001  0.000000e+000  3.849085e+001
      vertex  8.919954e+001  0.000000e+000  3.831286e+001
    endloop
  endfacet
  facet normal  0.000000e+000 -1.000000e+000  -0.000000e+000
    outer loop
      vertex  1.480635e+002  0.000000e+000  2.472630e+001
      vertex  8.919954e+001  0.000000e+000  3.831286e+001
      vertex  8.905154e+001  0.000000e+000  3.806675e+001
    endloop
  endfacet
  facet normal  0.000000e+000 -1.000000e+000  -0.000000e+000
    outer loop
      vertex  1.480635e+002  0.000000e+000  2.472630e+001
      vertex  8.905154e+001  0.000000e+000  3.806675e+001
      vertex  8.900000e+001  0.000000e+000  3.778423e+001
    endloop
  endfacet
  facet normal  0.000000e+000 -1.000000e+000  0.000000e+000
    outer loop
      vertex  1.480635e+002  0.000000e+000  2.472630e+001
      vertex  8.900000e+001  0.000000e+000  3.778423e+001
      vertex  8.900000e+001  0.000000e+000  3.240899e+001
    endloop
  endfacet
  facet normal  0.000000e+000 -1.000000e+000  -0.000000e+000
    outer loop
      vertex  2.352919e+002  0.000000e+000  3.945552e+000
      vertex  1.552635e+002  0.000000e+000  2.301102e+001
      vertex  1.542439e+002  0.000000e+000  2.298661e+001
    endloop
  endfacet
  facet normal  0.000000e+000 -1.000000e+000  -0.000000e+000
    outer loop
      vertex  2.352919e+002  0.000000e+000  3.945552e+000
      vertex  1.542439e+002  0.000000e+000  2.298661e+001
      vertex  1.537725e+002  0.000000e+000  2.278134e+001
    endloop
  endfacet
  facet normal  0.000000e+000 -1.000000e+000  -0.000000e+000
    outer loop
      vertex  2.352919e+002  0.000000e+000  3.945552e+000
      vertex  1.537725e+002  0.000000e+000  2.278134e+001
      vertex  1.533690e+002  0.000000e+000  2.246265e+001
    endloop
  endfacet
  facet normal  0.000000e+000 -1.000000e+000  -0.000000e+000
    outer loop
      vertex  2.352919e+002  0.000000e+000  3.945552e+000
      vertex  1.533690e+002  0.000000e+000  2.246265e+001
      vertex  1.530600e+002  0.000000e+000  2.205161e+001
    endloop
  endfacet
  facet normal  0.000000e+000 -1.000000e+000  -0.000000e+000
    outer loop
      vertex  2.352919e+002  0.000000e+000  3.945552e+000
      vertex  1.530600e+002  0.000000e+000  2.205161e+001
      vertex  1.528661e+002  0.000000e+000  2.157539e+001
    endloop
  endfacet
  facet normal  0.000000e+000 -1.000000e+000  -0.000000e+000
    outer loop
      vertex  2.352919e+002  0.000000e+000  3.945552e+000
      vertex  1.528661e+002  0.000000e+000  2.157539e+001
      vertex  1.528000e+002  0.000000e+000  2.106547e+001
    endloop
  endfacet
  facet normal  0.000000e+000 -9.999999e-001  0.000000e+000
    outer loop
      vertex  2.352919e+002  0.000000e+000  3.945552e+000
      vertex  1.528000e+002  0.000000e+000  2.106547e+001
      vertex  1.528000e+002  0.000000e+000  1.797908e+001
    endloop
  endfacet
  facet normal  -0.000000e+000 -1.000000e+000  -0.000000e+000
    outer loop
      vertex  2.352919e+002  0.000000e+000  3.945552e+000
      vertex  1.528000e+002  0.000000e+000  1.797908e+001
      vertex  1.496000e+002  0.000000e+000  1.797908e+001
    endloop
  endfacet
  facet normal  0.000000e+000 -1.000000e+000  -0.000000e+000
    outer loop
      vertex  2.352919e+002  0.000000e+000  3.945552e+000
      vertex  1.496000e+002  0.000000e+000  1.797908e+001
      vertex  8.900000e+001  0.000000e+000  6.962991e+000
    endloop
  endfacet
  facet normal  0.000000e+000 -1.000000e+000  0.000000e+000
    outer loop
      vertex  2.352919e+002  0.000000e+000  3.945552e+000
      vertex  8.900000e+001  0.000000e+000  6.962991e+000
      vertex  8.900000e+001  0.000000e+000  8.000000e-001
    endloop
  endfacet
  facet normal  0.000000e+000 -1.000000e+000  0.000000e+000
    outer loop
      vertex  8.900000e+001  0.000000e+000  8.000000e-001
      vertex  8.906090e+001  0.000000e+000  4.938532e-001
      vertex  2.362534e+002  0.000000e+000  5.965980e-001
    endloop
  endfacet
  facet normal  0.000000e+000 -9.999999e-001  0.000000e+000
    outer loop
      vertex  8.900000e+001  0.000000e+000  8.000000e-001
      vertex  2.362534e+002  0.000000e+000  5.965980e-001
      vertex  2.365706e+002  0.000000e+000  1.017640e+000
    endloop
  endfacet
  facet normal  -0.000000e+000 -1.000000e+000  0.000000e+000
    outer loop
      vertex  8.900000e+001  0.000000e+000  8.000000e-001
      vertex  2.365706e+002  0.000000e+000  1.017640e+000
      vertex  2.367667e+002  0.000000e+000  1.506925e+000
    endloop
  endfacet
  facet normal  -0.000000e+000 -1.000000e+000  0.000000e+000
    outer loop
      vertex  8.900000e+001  0.000000e+000  8.000000e-001
      vertex  2.367667e+002  0.000000e+000  1.506925e+000
      vertex  2.368282e+002  0.000000e+000  2.030463e+000
    endloop
  endfacet
  facet normal  -0.000000e+000 -1.000000e+000  0.000000e+000
    outer loop
      vertex  8.900000e+001  0.000000e+000  8.000000e-001
      vertex  2.368282e+002  0.000000e+000  2.030463e+000
      vertex  2.367508e+002  0.000000e+000  2.551885e+000
    endloop
  endfacet
  facet normal  -0.000000e+000 -1.000000e+000  0.000000e+000
    outer loop
      vertex  8.900000e+001  0.000000e+000  8.000000e-001
      vertex  2.367508e+002  0.000000e+000  2.551885e+000
      vertex  2.365398e+002  0.000000e+000  3.034968e+000
    endloop
  endfacet
  facet normal  -0.000000e+000 -1.000000e+000  0.000000e+000
    outer loop
      vertex  8.900000e+001  0.000000e+000  8.000000e-001
      vertex  2.365398e+002  0.000000e+000  3.034968e+000
      vertex  2.362100e+002  0.000000e+000  3.446153e+000
    endloop
  endfacet
  facet normal  -0.000000e+000 -1.000000e+000  0.000000e+000
    outer loop
      vertex  8.900000e+001  0.000000e+000  8.000000e-001
      vertex  2.362100e+002  0.000000e+000  3.446153e+000
      vertex  2.357842e+002  0.000000e+000  3.756876e+000
    endloop
  endfacet
  facet normal  -0.000000e+000 -1.000000e+000  0.000000e+000
    outer loop
      vertex  8.900000e+001  0.000000e+000  8.000000e-001
      vertex  2.357842e+002  0.000000e+000  3.756876e+000
      vertex  2.352919e+002  0.000000e+000  3.945552e+000
    endloop
  endfacet
  facet normal  0.000000e+000 -1.000000e+000  0.000000e+000
    outer loop
      vertex  8.720000e+001  0.000000e+000  5.923760e+000
      vertex  8.900000e+001  0.000000e+000  6.962991e+000
      vertex  8.600000e+001  0.000000e+000  6.616581e+000
    endloop
  endfacet
  facet normal  0.000000e+000 -1.000000e+000  0.000000e+000
    outer loop
      vertex  8.720000e+001  0.000000e+000  5.923760e+000
      vertex  8.600000e+001  0.000000e+000  6.616581e+000
      vertex  8.606916e+001  0.000000e+000  6.291192e+000
    endloop
  endfacet
  facet normal  0.000000e+000 -1.000000e+000  0.000000e+000
    outer loop
      vertex  8.720000e+001  0.000000e+000  5.923760e+000
      vertex  8.606916e+001  0.000000e+000  6.291192e+000
      vertex  8.626469e+001  0.000000e+000  6.022065e+000
    endloop
  endfacet
  facet normal  0.000000e+000 -1.000000e+000  0.000000e+000
    outer loop
      vertex  8.720000e+001  0.000000e+000  5.923760e+000
      vertex  8.626469e+001  0.000000e+000  6.022065e+000
      vertex  8.655279e+001  0.000000e+000  5.855736e+000
    endloop
  endfacet
  facet normal  0.000000e+000 -1.000000e+000  0.000000e+000
    outer loop
      vertex  8.720000e+001  0.000000e+000  5.923760e+000
      vertex  8.655279e+001  0.000000e+000  5.855736e+000
      vertex  8.688362e+001  0.000000e+000  5.820963e+000
    endloop
  endfacet
  facet normal  0.000000e+000 -1.000000e+000  0.000000e+000
    outer loop
      vertex  8.600000e+001  0.000000e+000  3.275540e+001
      vertex  8.900000e+001  0.000000e+000  3.240899e+001
      vertex  8.606916e+001  0.000000e+000  3.308079e+001
    endloop
  endfacet
  facet normal  0.000000e+000 -1.000000e+000  0.000000e+000
    outer loop
      vertex  8.606916e+001  0.000000e+000  3.308079e+001
      vertex  8.900000e+001  0.000000e+000  3.240899e+001
      vertex  8.720000e+001  0.000000e+000  3.344822e+001
    endloop
  endfacet
  facet normal  0.000000e+000 -1.000000e+000  0.000000e+000
    outer loop
      vertex  8.606916e+001  0.000000e+000  3.308079e+001
      vertex  8.720000e+001  0.000000e+000  3.344822e+001
      vertex  8.626469e+001  0.000000e+000  3.334991e+001
    endloop
  endfacet
  facet normal  0.000000e+000 -1.000000e+000  0.000000e+000
    outer loop
      vertex  8.626469e+001  0.000000e+000  3.334991e+001
      vertex  8.720000e+001  0.000000e+000  3.344822e+001
      vertex  8.688362e+001  0.000000e+000  3.355102e+001
    endloop
  endfacet
  facet normal  0.000000e+000 -9.999999e-001  0.000000e+000
    outer loop
      vertex  8.626469e+001  0.000000e+000  3.334991e+001
      vertex  8.688362e+001  0.000000e+000  3.355102e+001
      vertex  8.655279e+001  0.000000e+000  3.351624e+001
    endloop
  endfacet
  facet normal  0.000000e+000 -1.000000e+000  0.000000e+000
    outer loop
      vertex  8.923431e+001  0.000000e+000  2.343146e-001
      vertex  2.362534e+002  0.000000e+000  5.965980e-001
      vertex  8.906090e+001  0.000000e+000  4.938532e-001
    endloop
  endfacet
  facet normal  0.000000e+000 -1.000000e+000  0.000000e+000
    outer loop
      vertex  2.362534e+002  0.000000e+000  5.965980e-001
      vertex  8.923431e+001  0.000000e+000  2.343146e-001
      vertex  2.358372e+002  0.000000e+000  2.730488e-001
    endloop
  endfacet
  facet normal  0.000000e+000 -1.000000e+000  0.000000e+000
    outer loop
      vertex  2.358372e+002  0.000000e+000  2.730488e-001
      vertex  8.923431e+001  0.000000e+000  2.343146e-001
      vertex  8.949385e+001  0.000000e+000  6.089637e-002
    endloop
  endfacet
  facet normal  0.000000e+000 -1.000000e+000  0.000000e+000
    outer loop
      vertex  2.358372e+002  0.000000e+000  2.730488e-001
      vertex  8.949385e+001  0.000000e+000  6.089637e-002
      vertex  2.353510e+002  0.000000e+000  6.946868e-002
    endloop
  endfacet
  facet normal  0.000000e+000 -1.000000e+000  0.000000e+000
    outer loop
      vertex  2.353510e+002  0.000000e+000  6.946868e-002
      vertex  8.949385e+001  0.000000e+000  6.089637e-002
      vertex  8.980000e+001  0.000000e+000  0.000000e+000
    endloop
  endfacet
  facet normal  0.000000e+000 -1.000000e+000  0.000000e+000
    outer loop
      vertex  2.353510e+002  0.000000e+000  6.946868e-002
      vertex  8.980000e+001  0.000000e+000  0.000000e+000
      vertex  2.348284e+002  0.000000e+000  0.000000e+000
    endloop
  endfacet
  facet normal  2.317479e-001  -0.000000e+000  9.727759e-001
    outer loop
      vertex  1.552635e+002  3.000000e+000  2.301102e+001
      vertex  1.552635e+002  0.000000e+000  2.301102e+001
      vertex  2.352919e+002  3.000000e+000  3.945552e+000
    endloop
  endfacet
  facet normal  2.317479e-001  0.000000e+000  9.727759e-001
    outer loop
      vertex  2.352919e+002  3.000000e+000  3.945552e+000
      vertex  1.552635e+002  0.000000e+000  2.301102e+001
      vertex  2.352919e+002  0.000000e+000  3.945552e+000
    endloop
  endfacet
  facet normal -9.999999e-001  0.000000e+000  0.000000e+000
    outer loop
      vertex  1.528000e+002  3.000000e+000  1.797908e+001
      vertex  1.528000e+002  0.000000e+000  1.797908e+001
      vertex  1.528000e+002  3.000000e+000  2.106547e+001
    endloop
  endfacet
  facet normal -9.999999e-001  -0.000000e+000  0.000000e+000
    outer loop
      vertex  1.528000e+002  3.000000e+000  2.106547e+001
      vertex  1.528000e+002  0.000000e+000  1.797908e+001
      vertex  1.528000e+002  0.000000e+000  2.106547e+001
    endloop
  endfacet
  facet normal  1.047779e-001  0.000000e+000  9.944957e-001
    outer loop
      vertex  1.552635e+002  0.000000e+000  2.301102e+001
      vertex  1.552635e+002  3.000000e+000  2.301102e+001
      vertex  1.547521e+002  0.000000e+000  2.306489e+001
    endloop
  endfacet
  facet normal  1.047779e-001  -0.000000e+000  9.944957e-001
    outer loop
      vertex  1.547521e+002  0.000000e+000  2.306489e+001
      vertex  1.552635e+002  3.000000e+000  2.301102e+001
      vertex  1.547521e+002  3.000000e+000  2.306489e+001
    endloop
  endfacet
  facet normal -1.522456e-001  0.000000e+000  9.883427e-001
    outer loop
      vertex  1.547521e+002  0.000000e+000  2.306489e+001
      vertex  1.547521e+002  3.000000e+000  2.306489e+001
      vertex  1.542439e+002  0.000000e+000  2.298661e+001
    endloop
  endfacet
  facet normal -1.522456e-001  0.000000e+000  9.883427e-001
    outer loop
      vertex  1.542439e+002  0.000000e+000  2.298661e+001
      vertex  1.547521e+002  3.000000e+000  2.306489e+001
      vertex  1.542439e+002  3.000000e+000  2.298661e+001
    endloop
  endfacet
  facet normal -3.992116e-001  0.000000e+000  9.168588e-001
    outer loop
      vertex  1.542439e+002  0.000000e+000  2.298661e+001
      vertex  1.542439e+002  3.000000e+000  2.298661e+001
      vertex  1.537725e+002  0.000000e+000  2.278134e+001
    endloop
  endfacet
  facet normal -3.992116e-001  0.000000e+000  9.168588e-001
    outer loop
      vertex  1.537725e+002  0.000000e+000  2.278134e+001
      vertex  1.542439e+002  3.000000e+000  2.298661e+001
      vertex  1.537725e+002  3.000000e+000  2.278134e+001
    endloop
  endfacet
  facet normal -6.197714e-001  0.000000e+000  7.847824e-001
    outer loop
      vertex  1.537725e+002  0.000000e+000  2.278134e+001
      vertex  1.537725e+002  3.000000e+000  2.278134e+001
      vertex  1.533690e+002  0.000000e+000  2.246265e+001
    endloop
  endfacet
  facet normal -6.197714e-001  0.000000e+000  7.847824e-001
    outer loop
      vertex  1.533690e+002  0.000000e+000  2.246265e+001
      vertex  1.537725e+002  3.000000e+000  2.278134e+001
      vertex  1.533690e+002  3.000000e+000  2.246265e+001
    endloop
  endfacet
  facet normal -7.993929e-001  0.000000e+000  6.008086e-001
    outer loop
      vertex  1.533690e+002  0.000000e+000  2.246265e+001
      vertex  1.533690e+002  3.000000e+000  2.246265e+001
      vertex  1.530600e+002  0.000000e+000  2.205161e+001
    endloop
  endfacet
  facet normal -7.993929e-001  0.000000e+000  6.008086e-001
    outer loop
      vertex  1.530600e+002  0.000000e+000  2.205161e+001
      vertex  1.533690e+002  3.000000e+000  2.246265e+001
      vertex  1.530600e+002  3.000000e+000  2.205161e+001
    endloop
  endfacet
  facet normal -9.261549e-001  0.000000e+000  3.771433e-001
    outer loop
      vertex  1.530600e+002  0.000000e+000  2.205161e+001
      vertex  1.530600e+002  3.000000e+000  2.205161e+001
      vertex  1.528661e+002  0.000000e+000  2.157539e+001
    endloop
  endfacet
  facet normal -9.261549e-001  0.000000e+000  3.771433e-001
    outer loop
      vertex  1.528661e+002  0.000000e+000  2.157539e+001
      vertex  1.530600e+002  3.000000e+000  2.205161e+001
      vertex  1.528661e+002  3.000000e+000  2.157539e+001
    endloop
  endfacet
  facet normal -9.917027e-001  0.000000e+000  1.285527e-001
    outer loop
      vertex  1.528661e+002  0.000000e+000  2.157539e+001
      vertex  1.528661e+002  3.000000e+000  2.157539e+001
      vertex  1.528000e+002  0.000000e+000  2.106547e+001
    endloop
  endfacet
  facet normal -9.917027e-001  0.000000e+000  1.285527e-001
    outer loop
      vertex  1.528000e+002  0.000000e+000  2.106547e+001
      vertex  1.528661e+002  3.000000e+000  2.157539e+001
      vertex  1.528000e+002  3.000000e+000  2.106547e+001
    endloop
  endfacet
  facet normal  2.317479e-001  -0.000000e+000  9.727759e-001
    outer loop
      vertex  8.998540e+001  3.000000e+000  3.856245e+001
      vertex  8.998540e+001  0.000000e+000  3.856245e+001
      vertex  1.480635e+002  3.000000e+000  2.472630e+001
    endloop
  endfacet
  facet normal  2.317479e-001  0.000000e+000  9.727759e-001
    outer loop
      vertex  1.480635e+002  3.000000e+000  2.472630e+001
      vertex  8.998540e+001  0.000000e+000  3.856245e+001
      vertex  1.480635e+002  0.000000e+000  2.472630e+001
    endloop
  endfacet
  facet normal  1.000000e+000  -0.000000e+000  0.000000e+000
    outer loop
      vertex  1.496000e+002  3.000000e+000  2.278075e+001
      vertex  1.496000e+002  0.000000e+000  2.278075e+001
      vertex  1.496000e+002  3.000000e+000  1.797908e+001
    endloop
  endfacet
  facet normal  1.000000e+000  0.000000e+000  0.000000e+000
    outer loop
      vertex  1.496000e+002  3.000000e+000  1.797908e+001
      vertex  1.496000e+002  0.000000e+000  2.278075e+001
      vertex  1.496000e+002  0.000000e+000  1.797908e+001
    endloop
  endfacet
  facet normal  9.910750e-001  0.000000e+000  1.333053e-001
    outer loop
      vertex  1.496000e+002  0.000000e+000  2.278075e+001
      vertex  1.496000e+002  3.000000e+000  2.278075e+001
      vertex  1.495289e+002  0.000000e+000  2.330917e+001
    endloop
  endfacet
  facet normal  9.910750e-001  -0.000000e+000  1.333053e-001
    outer loop
      vertex  1.495289e+002  0.000000e+000  2.330917e+001
      vertex  1.496000e+002  3.000000e+000  2.278075e+001
      vertex  1.495289e+002  3.000000e+000  2.330917e+001
    endloop
  endfacet
  facet normal  9.206390e-001  0.000000e+000  3.904150e-001
    outer loop
      vertex  1.495289e+002  0.000000e+000  2.330917e+001
      vertex  1.495289e+002  3.000000e+000  2.330917e+001
      vertex  1.493208e+002  0.000000e+000  2.380003e+001
    endloop
  endfacet
  facet normal  9.206390e-001  -0.000000e+000  3.904150e-001
    outer loop
      vertex  1.493208e+002  0.000000e+000  2.380003e+001
      vertex  1.495289e+002  3.000000e+000  2.330917e+001
      vertex  1.493208e+002  3.000000e+000  2.380003e+001
    endloop
  endfacet
  facet normal  7.847846e-001  0.000000e+000  6.197686e-001
    outer loop
      vertex  1.493208e+002  0.000000e+000  2.380003e+001
      vertex  1.493208e+002  3.000000e+000  2.380003e+001
      vertex  1.489903e+002  0.000000e+000  2.421846e+001
    endloop
  endfacet
  facet normal  7.847846e-001  -0.000000e+000  6.197686e-001
    outer loop
      vertex  1.489903e+002  0.000000e+000  2.421846e+001
      vertex  1.493208e+002  3.000000e+000  2.380003e+001
      vertex  1.489903e+002  3.000000e+000  2.421846e+001
    endloop
  endfacet
  facet normal  5.931371e-001  0.000000e+000  8.051015e-001
    outer loop
      vertex  1.489903e+002  0.000000e+000  2.421846e+001
      vertex  1.489903e+002  3.000000e+000  2.421846e+001
      vertex  1.485611e+002  0.000000e+000  2.453470e+001
    endloop
  endfacet
  facet normal  5.931371e-001  -0.000000e+000  8.051015e-001
    outer loop
      vertex  1.485611e+002  0.000000e+000  2.453470e+001
      vertex  1.489903e+002  3.000000e+000  2.421846e+001
      vertex  1.485611e+002  3.000000e+000  2.453470e+001
    endloop
  endfacet
  facet normal  3.593393e-001  0.000000e+000  9.332070e-001
    outer loop
      vertex  1.485611e+002  0.000000e+000  2.453470e+001
      vertex  1.485611e+002  3.000000e+000  2.453470e+001
      vertex  1.480635e+002  0.000000e+000  2.472630e+001
    endloop
  endfacet
  facet normal  3.593393e-001  -0.000000e+000  9.332070e-001
    outer loop
      vertex  1.480635e+002  0.000000e+000  2.472630e+001
      vertex  1.485611e+002  3.000000e+000  2.453470e+001
      vertex  1.480635e+002  3.000000e+000  2.472630e+001
    endloop
  endfacet
  facet normal  0.000000e+000  0.000000e+000 -1.000000e+000
    outer loop
      vertex  2.348284e+002  3.000000e+000  0.000000e+000
      vertex  2.348284e+002  0.000000e+000  0.000000e+000
      vertex  8.980000e+001  3.000000e+000  0.000000e+000
    endloop
  endfacet
  facet normal  0.000000e+000  0.000000e+000 -1.000000e+000
    outer loop
      vertex  8.980000e+001  3.000000e+000  0.000000e+000
      vertex  2.348284e+002  0.000000e+000  0.000000e+000
      vertex  8.980000e+001  0.000000e+000  0.000000e+000
    endloop
  endfacet
  facet normal  1.317817e-001  0.000000e+000 -9.912788e-001
    outer loop
      vertex  2.348284e+002  0.000000e+000  0.000000e+000
      vertex  2.348284e+002  3.000000e+000  0.000000e+000
      vertex  2.353510e+002  0.000000e+000  6.946868e-002
    endloop
  endfacet
  facet normal  1.317817e-001  0.000000e+000 -9.912788e-001
    outer loop
      vertex  2.353510e+002  0.000000e+000  6.946868e-002
      vertex  2.348284e+002  3.000000e+000  0.000000e+000
      vertex  2.353510e+002  3.000000e+000  6.946868e-002
    endloop
  endfacet
  facet normal  3.862015e-001  0.000000e+000 -9.224145e-001
    outer loop
      vertex  2.353510e+002  0.000000e+000  6.946868e-002
      vertex  2.353510e+002  3.000000e+000  6.946868e-002
      vertex  2.358372e+002  0.000000e+000  2.730488e-001
    endloop
  endfacet
  facet normal  3.862015e-001  0.000000e+000 -9.224145e-001
    outer loop
      vertex  2.358372e+002  0.000000e+000  2.730488e-001
      vertex  2.353510e+002  3.000000e+000  6.946868e-002
      vertex  2.358372e+002  3.000000e+000  2.730488e-001
    endloop
  endfacet
  facet normal  6.137924e-001  0.000000e+000 -7.894675e-001
    outer loop
      vertex  2.358372e+002  0.000000e+000  2.730488e-001
      vertex  2.358372e+002  3.000000e+000  2.730488e-001
      vertex  2.362534e+002  0.000000e+000  5.965980e-001
    endloop
  endfacet
  facet normal  6.137924e-001  0.000000e+000 -7.894675e-001
    outer loop
      vertex  2.362534e+002  0.000000e+000  5.965980e-001
      vertex  2.358372e+002  3.000000e+000  2.730488e-001
      vertex  2.362534e+002  3.000000e+000  5.965980e-001
    endloop
  endfacet
  facet normal  7.987205e-001  0.000000e+000 -6.017023e-001
    outer loop
      vertex  2.362534e+002  0.000000e+000  5.965980e-001
      vertex  2.362534e+002  3.000000e+000  5.965980e-001
      vertex  2.365706e+002  0.000000e+000  1.017640e+000
    endloop
  endfacet
  facet normal  7.987205e-001  0.000000e+000 -6.017023e-001
    outer loop
      vertex  2.365706e+002  0.000000e+000  1.017640e+000
      vertex  2.362534e+002  3.000000e+000  5.965980e-001
      vertex  2.365706e+002  3.000000e+000  1.017640e+000
    endloop
  endfacet
  facet normal  9.281901e-001  0.000000e+000 -3.721065e-001
    outer loop
      vertex  2.365706e+002  0.000000e+000  1.017640e+000
      vertex  2.365706e+002  3.000000e+000  1.017640e+000
      vertex  2.367667e+002  0.000000e+000  1.506925e+000
    endloop
  endfacet
  facet normal  9.281901e-001  0.000000e+000 -3.721065e-001
    outer loop
      vertex  2.367667e+002  0.000000e+000  1.506925e+000
      vertex  2.365706e+002  3.000000e+000  1.017640e+000
      vertex  2.367667e+002  3.000000e+000  1.506925e+000
    endloop
  endfacet
  facet normal  9.931726e-001  0.000000e+000 -1.166545e-001
    outer loop
      vertex  2.367667e+002  0.000000e+000  1.506925e+000
      vertex  2.367667e+002  3.000000e+000  1.506925e+000
      vertex  2.368282e+002  0.000000e+000  2.030463e+000
    endloop
  endfacet
  facet normal  9.931726e-001  0.000000e+000 -1.166545e-001
    outer loop
      vertex  2.368282e+002  0.000000e+000  2.030463e+000
      vertex  2.367667e+002  3.000000e+000  1.506925e+000
      vertex  2.368282e+002  3.000000e+000  2.030463e+000
    endloop
  endfacet
  facet normal  9.891552e-001  0.000000e+000  1.468743e-001
    outer loop
      vertex  2.368282e+002  0.000000e+000  2.030463e+000
      vertex  2.368282e+002  3.000000e+000  2.030463e+000
      vertex  2.367508e+002  0.000000e+000  2.551885e+000
    endloop
  endfacet
  facet normal  9.891552e-001  -0.000000e+000  1.468743e-001
    outer loop
      vertex  2.367508e+002  0.000000e+000  2.551885e+000
      vertex  2.368282e+002  3.000000e+000  2.030463e+000
      vertex  2.367508e+002  3.000000e+000  2.551885e+000
    endloop
  endfacet
  facet normal  9.164332e-001  0.000000e+000  4.001878e-001
    outer loop
      vertex  2.367508e+002  0.000000e+000  2.551885e+000
      vertex  2.367508e+002  3.000000e+000  2.551885e+000
      vertex  2.365398e+002  0.000000e+000  3.034968e+000
    endloop
  endfacet
  facet normal  9.164332e-001  -0.000000e+000  4.001878e-001
    outer loop
      vertex  2.365398e+002  0.000000e+000  3.034968e+000
      vertex  2.367508e+002  3.000000e+000  2.551885e+000
      vertex  2.365398e+002  3.000000e+000  3.034968e+000
    endloop
  endfacet
  facet normal  7.800344e-001  0.000000e+000  6.257368e-001
    outer loop
      vertex  2.365398e+002  0.000000e+000  3.034968e+000
      vertex  2.365398e+002  3.000000e+000  3.034968e+000
      vertex  2.362100e+002  0.000000e+000  3.446153e+000
    endloop
  endfacet
  facet normal  7.800344e-001  -0.000000e+000  6.257368e-001
    outer loop
      vertex  2.362100e+002  0.000000e+000  3.446153e+000
      vertex  2.365398e+002  3.000000e+000  3.034968e+000
      vertex  2.362100e+002  3.000000e+000  3.446153e+000
    endloop
  endfacet
  facet normal  5.894498e-001  0.000000e+000  8.078050e-001
    outer loop
      vertex  2.362100e+002  0.000000e+000  3.446153e+000
      vertex  2.362100e+002  3.000000e+000  3.446153e+000
      vertex  2.357842e+002  0.000000e+000  3.756876e+000
    endloop
  endfacet
  facet normal  5.894498e-001  -0.000000e+000  8.078050e-001
    outer loop
      vertex  2.357842e+002  0.000000e+000  3.756876e+000
      vertex  2.362100e+002  3.000000e+000  3.446153e+000
      vertex  2.357842e+002  3.000000e+000  3.756876e+000
    endloop
  endfacet
  facet normal  3.579225e-001  0.000000e+000  9.337513e-001
    outer loop
      vertex  2.357842e+002  0.000000e+000  3.756876e+000
      vertex  2.357842e+002  3.000000e+000  3.756876e+000
      vertex  2.352919e+002  0.000000e+000  3.945552e+000
    endloop
  endfacet
  facet normal  3.579225e-001  -0.000000e+000  9.337513e-001
    outer loop
      vertex  2.352919e+002  0.000000e+000  3.945552e+000
      vertex  2.357842e+002  3.000000e+000  3.756876e+000
      vertex  2.352919e+002  3.000000e+000  3.945552e+000
    endloop
  endfacet
  facet normal -1.000000e+000  0.000000e+000  0.000000e+000
    outer loop
      vertex  8.900000e+001  3.000000e+000  3.240899e+001
      vertex  8.900000e+001  0.000000e+000  3.240899e+001
      vertex  8.900000e+001  3.000000e+000  3.778423e+001
    endloop
  endfacet
  facet normal -1.000000e+000  -0.000000e+000  0.000000e+000
    outer loop
      vertex  8.900000e+001  3.000000e+000  3.778423e+001
      vertex  8.900000e+001  0.000000e+000  3.240899e+001
      vertex  8.900000e+001  0.000000e+000  3.778423e+001
    endloop
  endfacet
  facet normal  5.338497e-002  0.000000e+000  9.985740e-001
    outer loop
      vertex  8.998540e+001  0.000000e+000  3.856245e+001
      vertex  8.998540e+001  3.000000e+000  3.856245e+001
      vertex  8.969862e+001  0.000000e+000  3.857779e+001
    endloop
  endfacet
  facet normal  5.338497e-002  -0.000000e+000  9.985740e-001
    outer loop
      vertex  8.969862e+001  0.000000e+000  3.857779e+001
      vertex  8.998540e+001  3.000000e+000  3.856245e+001
      vertex  8.969862e+001  3.000000e+000  3.857779e+001
    endloop
  endfacet
  facet normal -3.027146e-001  0.000000e+000  9.530813e-001
    outer loop
      vertex  8.969862e+001  0.000000e+000  3.857779e+001
      vertex  8.969862e+001  3.000000e+000  3.857779e+001
      vertex  8.942492e+001  0.000000e+000  3.849085e+001
    endloop
  endfacet
  facet normal -3.027146e-001  0.000000e+000  9.530813e-001
    outer loop
      vertex  8.942492e+001  0.000000e+000  3.849085e+001
      vertex  8.969862e+001  3.000000e+000  3.857779e+001
      vertex  8.942492e+001  3.000000e+000  3.849085e+001
    endloop
  endfacet
  facet normal -6.197696e-001  0.000000e+000  7.847838e-001
    outer loop
      vertex  8.942492e+001  0.000000e+000  3.849085e+001
      vertex  8.942492e+001  3.000000e+000  3.849085e+001
      vertex  8.919954e+001  0.000000e+000  3.831286e+001
    endloop
  endfacet
  facet normal -6.197696e-001  0.000000e+000  7.847838e-001
    outer loop
      vertex  8.919954e+001  0.000000e+000  3.831286e+001
      vertex  8.942492e+001  3.000000e+000  3.849085e+001
      vertex  8.919954e+001  3.000000e+000  3.831286e+001
    endloop
  endfacet
  facet normal -8.569862e-001  0.000000e+000  5.153394e-001
    outer loop
      vertex  8.919954e+001  0.000000e+000  3.831286e+001
      vertex  8.919954e+001  3.000000e+000  3.831286e+001
      vertex  8.905154e+001  0.000000e+000  3.806675e+001
    endloop
  endfacet
  facet normal -8.569862e-001  0.000000e+000  5.153394e-001
    outer loop
      vertex  8.905154e+001  0.000000e+000  3.806675e+001
      vertex  8.919954e+001  3.000000e+000  3.831286e+001
      vertex  8.905154e+001  3.000000e+000  3.806675e+001
    endloop
  endfacet
  facet normal -9.837614e-001  0.000000e+000  1.794816e-001
    outer loop
      vertex  8.905154e+001  0.000000e+000  3.806675e+001
      vertex  8.905154e+001  3.000000e+000  3.806675e+001
      vertex  8.900000e+001  0.000000e+000  3.778423e+001
    endloop
  endfacet
  facet normal -9.837614e-001  0.000000e+000  1.794816e-001
    outer loop
      vertex  8.900000e+001  0.000000e+000  3.778423e+001
      vertex  8.905154e+001  3.000000e+000  3.806675e+001
      vertex  8.900000e+001  3.000000e+000  3.778423e+001
    endloop
  endfacet
  facet normal -1.000000e+000  0.000000e+000  0.000000e+000
    outer loop
      vertex  8.900000e+001  3.000000e+000  8.000000e-001
      vertex  8.900000e+001  0.000000e+000  8.000000e-001
      vertex  8.900000e+001  3.000000e+000  6.962991e+000
    endloop
  endfacet
  facet normal -1.000000e+000  -0.000000e+000  0.000000e+000
    outer loop
      vertex  8.900000e+001  3.000000e+000  6.962991e+000
      vertex  8.900000e+001  0.000000e+000  8.000000e-001
      vertex  8.900000e+001  0.000000e+000  6.962991e+000
    endloop
  endfacet
  facet normal -9.807844e-001  -0.000000e+000 -1.950948e-001
    outer loop
      vertex  8.900000e+001  0.000000e+000  8.000000e-001
      vertex  8.900000e+001  3.000000e+000  8.000000e-001
      vertex  8.906090e+001  0.000000e+000  4.938532e-001
    endloop
  endfacet
  facet normal -9.807844e-001  0.000000e+000 -1.950948e-001
    outer loop
      vertex  8.906090e+001  0.000000e+000  4.938532e-001
      vertex  8.900000e+001  3.000000e+000  8.000000e-001
      vertex  8.906090e+001  3.000000e+000  4.938532e-001
    endloop
  endfacet
  facet normal -8.314726e-001  -0.000000e+000 -5.555657e-001
    outer loop
      vertex  8.906090e+001  0.000000e+000  4.938532e-001
      vertex  8.906090e+001  3.000000e+000  4.938532e-001
      vertex  8.923431e+001  0.000000e+000  2.343146e-001
    endloop
  endfacet
  facet normal -8.314726e-001  0.000000e+000 -5.555657e-001
    outer loop
      vertex  8.923431e+001  0.000000e+000  2.343146e-001
      vertex  8.906090e+001  3.000000e+000  4.938532e-001
      vertex  8.923431e+001  3.000000e+000  2.343146e-001
    endloop
  endfacet
  facet normal -5.555731e-001  -0.000000e+000 -8.314677e-001
    outer loop
      vertex  8.923431e+001  0.000000e+000  2.343146e-001
      vertex  8.923431e+001  3.000000e+000  2.343146e-001
      vertex  8.949385e+001  0.000000e+000  6.089637e-002
    endloop
  endfacet
  facet normal -5.555731e-001  0.000000e+000 -8.314677e-001
    outer loop
      vertex  8.949385e+001  0.000000e+000  6.089637e-002
      vertex  8.923431e+001  3.000000e+000  2.343146e-001
      vertex  8.949385e+001  3.000000e+000  6.089637e-002
    endloop
  endfacet
  facet normal -1.950869e-001  -0.000000e+000 -9.807860e-001
    outer loop
      vertex  8.949385e+001  0.000000e+000  6.089637e-002
      vertex  8.949385e+001  3.000000e+000  6.089637e-002
      vertex  8.980000e+001  0.000000e+000  0.000000e+000
    endloop
  endfacet
  facet normal -1.950869e-001  0.000000e+000 -9.807860e-001
    outer loop
      vertex  8.980000e+001  0.000000e+000  0.000000e+000
      vertex  8.949385e+001  3.000000e+000  6.089637e-002
      vertex  8.980000e+001  3.000000e+000  0.000000e+000
    endloop
  endfacet
  facet normal -1.000000e+000  0.000000e+000  0.000000e+000
    outer loop
      vertex  8.600000e+001  3.000000e+000  6.616581e+000
      vertex  8.600000e+001  0.000000e+000  6.616581e+000
      vertex  8.600000e+001  3.000000e+000  3.275540e+001
    endloop
  endfacet
  facet normal -1.000000e+000  -0.000000e+000  0.000000e+000
    outer loop
      vertex  8.600000e+001  3.000000e+000  3.275540e+001
      vertex  8.600000e+001  0.000000e+000  6.616581e+000
      vertex  8.600000e+001  0.000000e+000  3.275540e+001
    endloop
  endfacet
  facet normal  4.999993e-001  0.000000e+000 -8.660258e-001
    outer loop
      vertex  8.900000e+001  3.000000e+000  6.962991e+000
      vertex  8.900000e+001  0.000000e+000  6.962991e+000
      vertex  8.720000e+001  3.000000e+000  5.923760e+000
    endloop
  endfacet
  facet normal  4.999993e-001  0.000000e+000 -8.660258e-001
    outer loop
      vertex  8.720000e+001  3.000000e+000  5.923760e+000
      vertex  8.900000e+001  0.000000e+000  6.962991e+000
      vertex  8.720000e+001  0.000000e+000  5.923760e+000
    endloop
  endfacet
  facet normal -9.781495e-001  -0.000000e+000 -2.079025e-001
    outer loop
      vertex  8.600000e+001  0.000000e+000  6.616581e+000
      vertex  8.600000e+001  3.000000e+000  6.616581e+000
      vertex  8.606916e+001  0.000000e+000  6.291192e+000
    endloop
  endfacet
  facet normal -9.781495e-001  0.000000e+000 -2.079025e-001
    outer loop
      vertex  8.606916e+001  0.000000e+000  6.291192e+000
      vertex  8.600000e+001  3.000000e+000  6.616581e+000
      vertex  8.606916e+001  3.000000e+000  6.291192e+000
    endloop
  endfacet
  facet normal -8.090147e-001  -0.000000e+000 -5.877884e-001
    outer loop
      vertex  8.606916e+001  0.000000e+000  6.291192e+000
      vertex  8.606916e+001  3.000000e+000  6.291192e+000
      vertex  8.626469e+001  0.000000e+000  6.022065e+000
    endloop
  endfacet
  facet normal -8.090147e-001  0.000000e+000 -5.877884e-001
    outer loop
      vertex  8.626469e+001  0.000000e+000  6.022065e+000
      vertex  8.606916e+001  3.000000e+000  6.291192e+000
      vertex  8.626469e+001  3.000000e+000  6.022065e+000
    endloop
  endfacet
  facet normal -4.999955e-001  -0.000000e+000 -8.660280e-001
    outer loop
      vertex  8.626469e+001  0.000000e+000  6.022065e+000
      vertex  8.626469e+001  3.000000e+000  6.022065e+000
      vertex  8.655279e+001  0.000000e+000  5.855736e+000
    endloop
  endfacet
  facet normal -4.999955e-001  0.000000e+000 -8.660280e-001
    outer loop
      vertex  8.655279e+001  0.000000e+000  5.855736e+000
      vertex  8.626469e+001  3.000000e+000  6.022065e+000
      vertex  8.655279e+001  3.000000e+000  5.855736e+000
    endloop
  endfacet
  facet normal -1.045296e-001  -0.000000e+000 -9.945217e-001
    outer loop
      vertex  8.655279e+001  0.000000e+000  5.855736e+000
      vertex  8.655279e+001  3.000000e+000  5.855736e+000
      vertex  8.688362e+001  0.000000e+000  5.820963e+000
    endloop
  endfacet
  facet normal -1.045296e-001  0.000000e+000 -9.945217e-001
    outer loop
      vertex  8.688362e+001  0.000000e+000  5.820963e+000
      vertex  8.655279e+001  3.000000e+000  5.855736e+000
      vertex  8.688362e+001  3.000000e+000  5.820963e+000
    endloop
  endfacet
  facet normal  3.090179e-001  0.000000e+000 -9.510563e-001
    outer loop
      vertex  8.688362e+001  0.000000e+000  5.820963e+000
      vertex  8.688362e+001  3.000000e+000  5.820963e+000
      vertex  8.720000e+001  0.000000e+000  5.923760e+000
    endloop
  endfacet
  facet normal  3.090179e-001  0.000000e+000 -9.510563e-001
    outer loop
      vertex  8.720000e+001  0.000000e+000  5.923760e+000
      vertex  8.688362e+001  3.000000e+000  5.820963e+000
      vertex  8.720000e+001  3.000000e+000  5.923760e+000
    endloop
  endfacet
  facet normal  4.999993e-001  -0.000000e+000  8.660258e-001
    outer loop
      vertex  8.720000e+001  3.000000e+000  3.344822e+001
      vertex  8.720000e+001  0.000000e+000  3.344822e+001
      vertex  8.900000e+001  3.000000e+000  3.240899e+001
    endloop
  endfacet
  facet normal  4.999993e-001  0.000000e+000  8.660258e-001
    outer loop
      vertex  8.900000e+001  3.000000e+000  3.240899e+001
      vertex  8.720000e+001  0.000000e+000  3.344822e+001
      vertex  8.900000e+001  0.000000e+000  3.240899e+001
    endloop
  endfacet
  facet normal  3.090218e-001  0.000000e+000  9.510549e-001
    outer loop
      vertex  8.720000e+001  0.000000e+000  3.344822e+001
      vertex  8.720000e+001  3.000000e+000  3.344822e+001
      vertex  8.688362e+001  0.000000e+000  3.355102e+001
    endloop
  endfacet
  facet normal  3.090218e-001  -0.000000e+000  9.510549e-001
    outer loop
      vertex  8.688362e+001  0.000000e+000  3.355102e+001
      vertex  8.720000e+001  3.000000e+000  3.344822e+001
      vertex  8.688362e+001  3.000000e+000  3.355102e+001
    endloop
  endfacet
  facet normal -1.045367e-001  0.000000e+000  9.945210e-001
    outer loop
      vertex  8.688362e+001  0.000000e+000  3.355102e+001
      vertex  8.688362e+001  3.000000e+000  3.355102e+001
      vertex  8.655279e+001  0.000000e+000  3.351624e+001
    endloop
  endfacet
  facet normal -1.045367e-001  0.000000e+000  9.945210e-001
    outer loop
      vertex  8.655279e+001  0.000000e+000  3.351624e+001
      vertex  8.688362e+001  3.000000e+000  3.355102e+001
      vertex  8.655279e+001  3.000000e+000  3.351624e+001
    endloop
  endfacet
  facet normal -4.999944e-001  0.000000e+000  8.660286e-001
    outer loop
      vertex  8.655279e+001  0.000000e+000  3.351624e+001
      vertex  8.655279e+001  3.000000e+000  3.351624e+001
      vertex  8.626469e+001  0.000000e+000  3.334991e+001
    endloop
  endfacet
  facet normal -4.999944e-001  0.000000e+000  8.660286e-001
    outer loop
      vertex  8.626469e+001  0.000000e+000  3.334991e+001
      vertex  8.655279e+001  3.000000e+000  3.351624e+001
      vertex  8.626469e+001  3.000000e+000  3.334991e+001
    endloop
  endfacet
  facet normal -8.090147e-001  0.000000e+000  5.877884e-001
    outer loop
      vertex  8.626469e+001  0.000000e+000  3.334991e+001
      vertex  8.626469e+001  3.000000e+000  3.334991e+001
      vertex  8.606916e+001  0.000000e+000  3.308079e+001
    endloop
  endfacet
  facet normal -8.090147e-001  0.000000e+000  5.877884e-001
    outer loop
      vertex  8.606916e+001  0.000000e+000  3.308079e+001
      vertex  8.626469e+001  3.000000e+000  3.334991e+001
      vertex  8.606916e+001  3.000000e+000  3.308079e+001
    endloop
  endfacet
  facet normal -9.781496e-001  0.000000e+000  2.079022e-001
    outer loop
      vertex  8.606916e+001  0.000000e+000  3.308079e+001
      vertex  8.606916e+001  3.000000e+000  3.308079e+001
      vertex  8.600000e+001  0.000000e+000  3.275540e+001
    endloop
  endfacet
  facet normal -9.781496e-001  0.000000e+000  2.079022e-001
    outer loop
      vertex  8.600000e+001  0.000000e+000  3.275540e+001
      vertex  8.606916e+001  3.000000e+000  3.308079e+001
      vertex  8.600000e+001  3.000000e+000  3.275540e+001
    endloop
  endfacet
  facet normal  0.000000e+000  0.000000e+000  1.000000e+000
    outer loop
      vertex  1.496000e+002  3.000000e+000  1.797908e+001
      vertex  1.496000e+002  0.000000e+000  1.797908e+001
      vertex  1.528000e+002  3.000000e+000  1.797908e+001
    endloop
  endfacet
  facet normal  0.000000e+000  0.000000e+000  1.000000e+000
    outer loop
      vertex  1.528000e+002  3.000000e+000  1.797908e+001
      vertex  1.496000e+002  0.000000e+000  1.797908e+001
      vertex  1.528000e+002  0.000000e+000  1.797908e+001
    endloop
  endfacet
endsolid CATIA STL
